<?xml version="1.0" encoding="UTF-8"?>
<svg version="1.1" xmlns="http://www.w3.org/2000/svg" width="1024" height="1024">
<path d="M0 0 C0.91220306 0.44999107 0.91220306 0.44999107 1.84283447 0.90907288 C3.14994753 1.55527666 4.4544709 2.20674052 5.7565918 2.86294556 C8.54332857 4.26660956 11.34310692 5.64327154 14.14257812 7.02131653 C15.5715686 7.72483129 16.99995235 8.42957974 18.42773438 9.13554382 C24.58751985 12.17758726 30.8001227 15.09382439 37.046875 17.953125 C38.06491211 18.42008789 39.08294922 18.88705078 40.13183594 19.36816406 C42.34148218 20.38105788 44.5514594 21.3932299 46.76171875 22.40478516 C51.15236908 24.4162849 55.53714534 26.44047799 59.921875 28.46484375 C60.7458075 28.84508194 61.56973999 29.22532013 62.41864014 29.61708069 C66.64556888 31.56825964 70.87119026 33.52220088 75.09472656 35.48071289 C82.61111719 38.96295551 90.13394503 42.41906878 97.71875 45.75 C98.94099484 46.29242912 100.16300891 46.8353786 101.38476562 47.37890625 C103.58995848 48.35590641 105.80186822 49.31794495 108.02148438 50.26171875 C115.01013809 53.37922938 115.01013809 53.37922938 117.77734375 57.3046875 C118.546875 60.140625 118.546875 60.140625 117.609375 62.765625 C115.546875 65.140625 115.546875 65.140625 112.46118164 66.84960938 C109.24793762 68.87958313 109.24793762 68.87958313 108.81811523 72.37695312 C108.83660522 74.25543945 108.83660522 74.25543945 108.85546875 76.171875 C108.85753075 77.18127136 108.85753075 77.18127136 108.8596344 78.21105957 C108.86867377 79.62996346 108.89225144 81.04883998 108.92944336 82.46728516 C108.98421299 84.63421509 108.99097247 86.79729393 108.99023438 88.96484375 C108.80662302 97.1593697 108.80662302 97.1593697 112.546875 104.140625 C113.359375 107.765625 113.359375 107.765625 113.546875 111.140625 C110.87810596 113.80939404 109.29427845 113.76076292 105.546875 114.140625 C102.57826303 114.11346032 99.63190753 113.92136469 96.671875 113.703125 C95.888125 113.65091797 95.104375 113.59871094 94.296875 113.54492188 C92.3797838 113.41633649 90.46325997 113.27933883 88.546875 113.140625 C87.14229763 110.33147026 87.29792343 108.25251966 87.546875 105.140625 C88.2584375 104.2125 88.2584375 104.2125 88.984375 103.265625 C93.69363699 96.8610287 91.63059981 84.80609691 91.546875 77.140625 C90.60835693 77.59501953 90.60835693 77.59501953 89.65087891 78.05859375 C86.8264688 79.42329665 83.99922663 80.78202747 81.171875 82.140625 C80.18703125 82.61757813 79.2021875 83.09453125 78.1875 83.5859375 C77.24648438 84.03710938 76.30546875 84.48828125 75.3359375 84.953125 C74.46662598 85.37207031 73.59731445 85.79101562 72.70166016 86.22265625 C70.546875 87.140625 70.546875 87.140625 68.546875 87.140625 C68.546875 98.360625 68.546875 109.580625 68.546875 121.140625 C73.93 121.10582031 73.93 121.10582031 79.421875 121.0703125 C82.91357063 121.05469648 86.4052623 121.04256282 89.89697266 121.03076172 C92.3159358 121.0207299 94.7348869 121.00710129 97.15380859 120.98974609 C100.63902773 120.96537393 104.12408593 120.95411342 107.609375 120.9453125 C108.68364746 120.93498993 109.75791992 120.92466736 110.86474609 120.91403198 C119.47259387 120.91275773 126.58194988 121.56868491 133.546875 127.140625 C138.84555098 132.46865653 140.78902682 137.15020886 140.8253479 144.626297 C140.84209312 146.5928978 140.84209312 146.5928978 140.85917664 148.59922791 C140.86154139 150.04507418 140.86371708 151.49092077 140.86572266 152.93676758 C140.87502428 154.46458465 140.88519331 155.99239664 140.89616394 157.52020264 C140.92345161 161.66232568 140.93860969 165.80441474 140.95159197 169.94660401 C140.96722789 174.27748654 140.99401665 178.60829971 141.0196228 182.93913269 C141.0664024 191.13773651 141.10315048 199.33635339 141.13629568 207.53502244 C141.17452283 216.86994922 141.22393145 226.20480635 141.27427983 235.5396744 C141.37758752 254.73994028 141.46685172 273.94024867 141.546875 293.140625 C142.44760742 293.18888428 143.34833984 293.23714355 144.27636719 293.28686523 C145.45360352 293.36106689 146.63083984 293.43526855 147.84375 293.51171875 C149.01260742 293.58060303 150.18146484 293.6494873 151.38574219 293.72045898 C154.546875 294.140625 154.546875 294.140625 157.796875 296.203125 C161.24895928 301.99769504 160.85026907 306.64417899 159.484375 313.015625 C157.16978462 321.37562953 153.07939811 328.38578321 146.546875 334.140625 C145.98484375 334.69363281 145.4228125 335.24664063 144.84375 335.81640625 C137.34560259 342.93355024 128.26230417 347.25569885 117.83658314 347.27205276 C116.91317845 347.27589391 115.98977377 347.27973505 115.03838712 347.2836926 C113.5296497 347.28239287 113.5296497 347.28239287 111.99043274 347.28106689 C110.37752131 347.28552358 110.37752131 347.28552358 108.7320258 347.2900703 C105.12253083 347.2987542 101.51306904 347.30026529 97.90356445 347.30175781 C95.31809925 347.30638621 92.73263474 347.3114109 90.14717102 347.31680298 C83.11809594 347.3303717 76.08902657 347.3364088 69.05994058 347.34081364 C64.66856723 347.34357865 60.27719607 347.34781649 55.8858242 347.35231781 C43.72067179 347.36450879 31.55552113 347.3748083 19.39036274 347.3781929 C18.22297552 347.37852225 18.22297552 347.37852225 17.03200473 347.37885825 C16.25191355 347.37907653 15.47182237 347.37929481 14.66809207 347.3795197 C13.08740318 347.37996316 11.50671428 347.38040973 9.92602539 347.38085938 C8.74991786 347.38119152 8.74991786 347.38119152 7.55005058 347.38153037 C-5.14962691 347.38547689 -17.84924698 347.40292719 -30.5489023 347.4262189 C-43.59623434 347.44995453 -56.64353759 347.46239577 -69.69089156 347.46356082 C-77.01293524 347.46447636 -84.33490409 347.47019811 -91.65692711 347.48838043 C-98.54583911 347.50542728 -105.43460708 347.50701751 -112.32353401 347.49824142 C-114.84944412 347.49747094 -117.37536186 347.50181522 -119.90125275 347.51169968 C-123.35492528 347.52442022 -126.80809522 347.51854124 -130.26176453 347.50811768 C-131.25643586 347.51617408 -132.2511072 347.52423048 -133.27592009 347.53253102 C-145.52926683 347.44630302 -156.65344561 343.20596565 -165.76171875 334.921875 C-173.52063005 326.75082754 -178.70011713 316.54807459 -179.5546875 305.21484375 C-179.37621214 301.56982767 -178.31587219 299.28802542 -176.453125 296.140625 C-173.11157714 293.84473158 -170.17811061 293.92921227 -166.203125 294.015625 C-165.12546875 294.03367187 -164.0478125 294.05171875 -162.9375 294.0703125 C-161.70773438 294.10511719 -161.70773438 294.10511719 -160.453125 294.140625 C-160.45404679 293.54321062 -160.45496859 292.94579624 -160.45591831 292.3302784 C-160.47826011 277.61411087 -160.49467335 262.89794503 -160.50493717 248.1817646 C-160.51003594 241.06436668 -160.51699154 233.94698041 -160.52856445 226.82958984 C-160.61509216 172.07790797 -160.61509216 172.07790797 -160.24032402 153.82522202 C-160.20104011 151.78968804 -160.1787281 149.75384772 -160.15724182 147.7180481 C-159.94436063 139.86084575 -158.89648121 134.40502478 -153.84765625 128.15234375 C-145.73687163 121.36331662 -137.26829119 120.68797789 -126.98046875 120.62890625 C-125.23498497 120.60197945 -125.23498497 120.60197945 -123.45423889 120.57450867 C-119.76640358 120.52066883 -116.07869576 120.48659381 -112.390625 120.453125 C-109.87823757 120.41992878 -107.36586691 120.38543701 -104.85351562 120.34960938 C-98.72016647 120.26495748 -92.58680026 120.19649686 -86.453125 120.140625 C-86.4237342 116.49480902 -86.40619626 112.84902413 -86.390625 109.203125 C-86.37805664 107.67075195 -86.37805664 107.67075195 -86.36523438 106.10742188 C-86.3556783 103.11637131 -86.38731766 100.13093084 -86.453125 97.140625 C-86.4716301 96.26607666 -86.49013519 95.39152832 -86.50920105 94.49047852 C-86.73460214 89.77049001 -86.73460214 89.77049001 -89.54418945 86.16015625 C-90.459021 85.76183594 -91.37385254 85.36351562 -92.31640625 84.953125 C-93.33968018 84.48656494 -94.3629541 84.02000488 -95.41723633 83.53930664 C-96.52220459 83.0777417 -97.62717285 82.61617676 -98.765625 82.140625 C-99.88670654 81.63716553 -101.00778809 81.13370605 -102.1628418 80.61499023 C-105.57860718 79.08797349 -109.01190009 77.6092336 -112.453125 76.140625 C-115.36139137 74.8825599 -118.26686092 73.61905748 -121.16674805 72.34179688 C-122.85644846 71.60147158 -124.55302908 70.87658957 -126.25708008 70.16992188 C-130.8048129 68.21217073 -133.81603672 66.54274855 -136.453125 62.140625 C-136.765625 58.640625 -136.765625 58.640625 -135.453125 55.140625 C-128.11638595 49.53622076 -118.30948477 46.18817055 -109.953125 42.265625 C-108.35522074 41.51286628 -106.75732042 40.76009922 -105.15942383 40.00732422 C-93.83754636 34.68359995 -82.46461798 29.47763135 -71.06307983 24.32711792 C-62.41715496 20.42092453 -53.81214638 16.44892706 -45.265625 12.328125 C-37.65619557 8.66964083 -30.04444026 5.01804617 -22.390625 1.453125 C-21.47966064 1.01830811 -20.56869629 0.58349121 -19.63012695 0.13549805 C-18.34948364 -0.45557739 -18.34948364 -0.45557739 -17.04296875 -1.05859375 C-15.92716431 -1.58199341 -15.92716431 -1.58199341 -14.78881836 -2.1159668 C-9.10164463 -3.92608951 -5.19232715 -2.60147892 0 0 Z M-142.453125 140.140625 C-143.53873034 143.39744102 -143.57893613 145.76186007 -143.58010864 149.1892395 C-143.58292847 150.45404144 -143.58574829 151.71884338 -143.58865356 153.02197266 C-143.58670922 154.42626967 -143.58466105 155.83056655 -143.58251953 157.23486328 C-143.58387431 158.71149743 -143.58565468 160.18813124 -143.58782959 161.6647644 C-143.592394 165.67693104 -143.59061864 169.68907201 -143.5874505 173.70123911 C-143.58492275 177.89415971 -143.58726552 182.08707809 -143.58883667 186.27999878 C-143.59065674 193.31964514 -143.58825588 200.35928101 -143.58349609 207.39892578 C-143.57804956 215.54860718 -143.57981962 223.69826358 -143.5853225 231.84794438 C-143.58985321 238.83649985 -143.59050451 245.82504777 -143.58788383 252.81360424 C-143.58632137 256.99147443 -143.58612654 261.16933285 -143.58942032 265.3472023 C-143.59229856 269.27220716 -143.59032422 273.1971796 -143.58452606 277.12218094 C-143.58319839 278.56661424 -143.5835927 280.01105024 -143.58578873 281.45548248 C-143.58849981 283.41897996 -143.58450578 285.38248336 -143.58010864 287.34597778 C-143.57973162 288.44731112 -143.57935459 289.54864445 -143.57896614 290.68335152 C-143.73104204 293.08604683 -143.73104204 293.08604683 -142.453125 294.140625 C-141.02483882 294.23723212 -139.59178869 294.26434334 -138.16023922 294.26367283 C-136.76215272 294.2666594 -136.76215272 294.2666594 -135.33582205 294.26970631 C-134.29985169 294.26679347 -133.26388134 294.26388063 -132.19651794 294.26087952 C-130.55977359 294.26216115 -130.55977359 294.26216115 -128.88996369 294.26346868 C-125.20323752 294.2651267 -121.51655602 294.25959687 -117.82983398 294.25415039 C-115.19917807 294.25386856 -112.56852208 294.25402617 -109.93786621 294.2545929 C-104.25860054 294.25511832 -98.57934633 294.25196961 -92.90008354 294.24635506 C-84.68873188 294.23824253 -76.47738579 294.23562509 -68.26603056 294.23436707 C-54.94501007 294.23217616 -41.62399569 294.22551502 -28.30297852 294.21606445 C-15.35961945 294.20689134 -2.41626205 294.19981001 10.52709961 294.19555664 C11.72299725 294.19516256 11.72299725 294.19516256 12.94305445 294.19476051 C16.94253083 294.19345551 20.94200722 294.19219179 24.94148362 294.19094861 C58.14328519 294.18057478 91.34507928 294.16295541 124.546875 294.140625 C124.57024078 278.58092488 124.58787227 263.02122795 124.59868717 247.46151447 C124.6038423 240.23678819 124.61087011 233.0120728 124.62231445 225.78735352 C124.63228518 219.48990963 124.63873413 213.19247365 124.64096349 206.89502209 C124.64226654 203.56093214 124.64585194 200.22687004 124.65260506 196.89278603 C124.65984705 193.16980262 124.66086459 189.44686626 124.66040039 185.72387695 C124.66399567 184.61976471 124.66759094 183.51565247 124.67129517 182.37808228 C124.66923317 180.85322456 124.66923317 180.85322456 124.66712952 179.29756165 C124.66805131 178.41724935 124.6689731 177.53693705 124.66992283 176.62994862 C124.54238535 174.04979696 124.05332181 171.66903902 123.546875 169.140625 C123.88020833 167.80729167 124.21354167 166.47395833 124.546875 165.140625 C124.381875 164.315625 124.216875 163.490625 124.046875 162.640625 C123.546875 160.140625 123.546875 160.140625 124.03515625 158.4609375 C124.77109248 155.12394421 124.47064055 151.89454606 124.234375 148.515625 C124.18120117 147.4946875 124.18120117 147.4946875 124.12695312 146.453125 C123.94065623 142.34767401 123.94065623 142.34767401 121.546875 139.140625 C116.33541052 138.09841259 111.2367743 138.00048576 105.94941711 138.02037048 C105.10913017 138.01951606 104.26884323 138.01866163 103.40309304 138.01778132 C100.60114482 138.01614062 97.79925712 138.02162479 94.99731445 138.02709961 C92.98309328 138.02738182 90.968872 138.02722308 88.95465088 138.0266571 C83.49421813 138.02637038 78.03380739 138.03224767 72.57337976 138.03923106 C66.85907621 138.04548857 61.14477214 138.04607041 55.4304657 138.04725647 C44.608798 138.05036395 33.78714041 138.05856838 22.96547717 138.06860596 C10.66038688 138.07977312 -1.64470389 138.08528107 -13.94979799 138.09030139 C-37.50118538 138.10002423 -61.05256554 138.11539904 -84.60394591 138.1359629 C-94.40631828 138.14438529 -94.40631828 138.14438529 -98.8828125 138.10888672 C-103.69984524 138.07304969 -108.51685802 138.04982887 -113.33398438 138.03076172 C-115.41343192 138.02067047 -117.49286517 138.00699848 -119.57226562 137.98974609 C-122.57425401 137.96550585 -125.57605669 137.9541484 -128.578125 137.9453125 C-129.50737793 137.93498993 -130.43663086 137.92466736 -131.39404297 137.91403198 C-132.69559326 137.91380539 -132.69559326 137.91380539 -134.0234375 137.91357422 C-134.78414551 137.909133 -135.54485352 137.90469177 -136.32861328 137.90011597 C-138.80428487 138.18037866 -140.37223347 138.7733151 -142.453125 140.140625 Z " fill="#1D514C" transform="translate(286.453125,306.859375)"/>
<path d="M0 0 C100.98 0 201.96 0 306 0 C302.59334006 10.21997982 302.59334006 10.21997982 299.375 13.3125 C298.45847656 14.23482422 298.45847656 14.23482422 297.5234375 15.17578125 C290.29729975 20.39963006 283.6247372 21.58656504 274.84864807 21.5146637 C273.2122341 21.52508199 273.2122341 21.52508199 271.54276127 21.53571075 C267.90402916 21.55393956 264.26595205 21.54372739 260.62719727 21.53344727 C258.01158156 21.54050776 255.39596994 21.54925333 252.78036499 21.55955505 C246.4234305 21.58114807 240.06667535 21.5810803 233.70971627 21.57292951 C228.54075803 21.56661835 223.37185192 21.56777675 218.20289421 21.57420158 C217.4659794 21.57510324 216.72906459 21.57600489 215.96981902 21.57693387 C214.47257113 21.57878516 212.97532324 21.58064772 211.47807538 21.58252143 C197.45179687 21.59908355 183.42561908 21.59039427 169.39934664 21.57353585 C156.58023104 21.55884062 143.76134986 21.57346752 130.94226445 21.60230602 C117.76370106 21.63173131 104.58524575 21.64266316 91.40665096 21.63312382 C89.91474118 21.63210131 88.42283137 21.6311067 86.93092155 21.6301403 C86.19696612 21.62966391 85.46301069 21.62918752 84.70681419 21.6286967 C79.5476758 21.62653668 74.38864022 21.63631462 69.22952461 21.65091133 C62.27807015 21.67030561 55.32705788 21.66330196 48.3756218 21.63871193 C45.82713856 21.63370605 43.27862212 21.63718789 40.73016548 21.64986038 C37.24572323 21.66581408 33.76271086 21.65081558 30.27833557 21.62818909 C29.27471987 21.64002482 28.27110417 21.65186054 27.23707587 21.66405493 C19.1919247 21.55823713 12.58214925 19.24919307 6.5625 13.7890625 C5.7890625 12.71785156 5.7890625 12.71785156 5 11.625 C4.46375 10.91601562 3.9275 10.20703125 3.375 9.4765625 C2 7 2 7 0 0 Z " fill="#55A08A" transform="translate(124,617)"/>
<path d="M0 0 C1.02134033 0.45076904 2.04268066 0.90153809 3.0949707 1.3659668 C4.74372192 2.14967651 4.74372192 2.14967651 6.42578125 2.94921875 C7.03751694 3.23840683 7.64925262 3.52759491 8.27952576 3.82554626 C9.60043815 4.45008387 10.9206953 5.07600885 12.24035645 5.70318604 C15.82423314 7.40560664 19.41385352 9.09580667 23.00390625 10.78515625 C23.74700043 11.13491516 24.4900946 11.48467407 25.25570679 11.84503174 C33.0553875 15.50851973 40.89901605 19.07312054 48.75 22.625 C59.5024848 27.49217151 70.23481824 32.39916723 80.9375 37.375 C82.12891602 37.92881348 83.32033203 38.48262695 84.54785156 39.05322266 C92.66431506 42.83215753 92.66431506 42.83215753 95 44 C95 44.66 95 45.32 95 46 C91.4201967 47.91385606 87.8275599 49.80072399 84.22119141 51.6640625 C82.9973617 52.30106246 81.77722335 52.94520876 80.56103516 53.59667969 C78.80847345 54.53386314 77.04104347 55.44307228 75.2734375 56.3515625 C74.21560059 56.90666504 73.15776367 57.46176758 72.06787109 58.03369141 C68.2394427 59.239558 66.61434711 58.59874953 63 57 C61.83726562 56.54882812 60.67453125 56.09765625 59.4765625 55.6328125 C58.856604 55.38885742 58.23664551 55.14490234 57.59790039 54.89355469 C37.88381725 47.21382028 18.00240044 44.56696916 -3.0625 44.625 C-3.8166922 44.62554382 -4.5708844 44.62608765 -5.34793091 44.62664795 C-27.09562803 44.69815726 -51.95228115 47.04878119 -71.078125 58.328125 C-74.66461396 59.58193822 -77.49024752 58.21637851 -80.86254883 56.78491211 C-81.88372803 56.28741455 -82.90490723 55.78991699 -83.95703125 55.27734375 C-85.06884766 54.73916016 -86.18066406 54.20097656 -87.32617188 53.64648438 C-88.47666016 53.08251953 -89.62714844 52.51855469 -90.8125 51.9375 C-91.98232422 51.36966797 -93.15214844 50.80183594 -94.35742188 50.21679688 C-97.24081007 48.81629404 -100.12151151 47.41053866 -103 46 C-103 45.34 -103 44.68 -103 44 C-87.53421188 36.4765172 -72.03557581 29.04835549 -56.41870117 21.84277344 C-47.00308079 17.48923601 -37.65028034 13.016608 -28.31787109 8.48803711 C-26.2581352 7.48969409 -24.19536365 6.49758634 -22.12939453 5.51220703 C-19.91801328 4.44360854 -17.72229189 3.34231106 -15.53857422 2.21826172 C-14.40049316 1.64994629 -13.26241211 1.08163086 -12.08984375 0.49609375 C-11.06624756 -0.02927979 -10.04265137 -0.55465332 -8.98803711 -1.09594727 C-5.1618967 -2.25357436 -3.61642421 -1.60450694 0 0 Z " fill="#549D88" transform="translate(281,322)"/>
<path d="M0 0 C0.78052734 0.23477051 1.56105469 0.46954102 2.36523438 0.71142578 C14.33833131 4.33833131 14.33833131 4.33833131 16 6 C16 18.21 16 30.42 16 43 C-24.26 43 -64.52 43 -106 43 C-106 30.46 -106 17.92 -106 5 C-72.49395116 -6.16868295 -34.42218555 -10.80985089 0 0 Z " fill="#539D88" transform="translate(323,386)"/>
<path d="M0 0 C0.66 0.33 1.32 0.66 2 1 C4.53593209 1.03044858 7.05565048 0.93314983 9.58984375 0.83984375 C12 1 12 1 15 3 C15.71635929 4.98274401 16.37294043 6.98723058 17 9 C18.18381696 11.69334824 19.49635774 14.32035874 20.80859375 16.953125 C21.1759816 17.6945575 21.54336945 18.43598999 21.92189026 19.19989014 C22.6955824 20.75735209 23.47141268 22.31375353 24.24926758 23.86914062 C25.43862962 26.25226341 26.6150276 28.64150499 27.79101562 31.03125 C28.54609142 32.54726553 29.3019246 34.06290411 30.05859375 35.578125 C30.40869003 36.2926886 30.75878632 37.0072522 31.11949158 37.74346924 C32.81221099 41.09769245 33.81306464 42.87537643 37 45 C37 45.99 37 46.98 37 48 C37.51908936 46.96182129 38.03817871 45.92364258 38.57299805 44.85400391 C43.36755371 35.26489258 43.36755371 35.26489258 48.16210938 25.67578125 C48.56275101 24.87373764 48.96339264 24.07169403 49.37617493 23.24534607 C50.17106885 21.65708695 50.96840027 20.07004528 51.76823425 18.48426819 C53.40891176 15.22587506 55.01208609 11.97317392 56.51098633 8.64624023 C56.91986084 7.74333252 57.32873535 6.8404248 57.75 5.91015625 C58.06839844 5.16386963 58.38679687 4.41758301 58.71484375 3.64868164 C60.58182139 1.25360185 62.3765884 1.19775658 65.3125 0.8125 C69.99330803 0.73733374 74.2912468 1.41140585 79 2 C78.67 28.73 78.34 55.46 78 83 C67 84 67 84 63 84 C62.67 66.18 62.34 48.36 62 30 C59.793125 34.41375 57.58625 38.8275 55.3125 43.375 C51.55078125 50.8984375 51.55078125 50.8984375 50.63606262 52.72348022 C49.24439945 55.5016294 47.86156642 58.2833457 46.49755859 61.07519531 C46.05879395 61.97077148 45.6200293 62.86634766 45.16796875 63.7890625 C44.79309326 64.5620166 44.41821777 65.3349707 44.03198242 66.13134766 C43 68 43 68 41 70 C38.67800043 70.44428151 36.38778138 70.62390445 34.03369141 70.82568359 C33.02701416 70.91197021 33.02701416 70.91197021 32 71 C26.80925016 63.21899432 22.82455535 54.86948706 18.6875 46.5 C16.150625 41.385 13.61375 36.27 11 31 C10.67 47.5 10.34 64 10 81 C10.66 81.33 11.32 81.66 12 82 C9.0384304 83.4807848 6.16493705 83.35314037 2.875 83.5625 C1.59367187 83.64628906 0.31234375 83.73007812 -1.0078125 83.81640625 C-1.99523437 83.87699219 -2.98265625 83.93757812 -4 84 C-4 83.34 -4 82.68 -4 82 C-4.66 81.67 -5.32 81.34 -6 81 C-5.34 81 -4.68 81 -4 81 C-4.33 80.01 -4.66 79.02 -5 78 C-5.0952543 75.60363669 -5.12794869 73.20465177 -5.12939453 70.80639648 C-5.13114685 70.0776532 -5.13289917 69.34890991 -5.13470459 68.5980835 C-5.13910625 66.1890627 -5.13619134 63.78011529 -5.1328125 61.37109375 C-5.13348595 59.69865403 -5.13445632 58.02621441 -5.13571167 56.35377502 C-5.1371863 52.84920316 -5.13504135 49.34465679 -5.13037109 45.84008789 C-5.12466954 41.34176579 -5.12795699 36.84350329 -5.13394356 32.34518337 C-5.13755175 28.89231413 -5.13640947 25.43945909 -5.13381577 21.98658943 C-5.13314744 20.32754573 -5.13397164 18.66850075 -5.13629532 17.00945854 C-5.13882653 14.69434043 -5.13497481 12.37931981 -5.12939453 10.06420898 C-5.12859894 8.74533188 -5.12780334 7.42645477 -5.12698364 6.06761169 C-5 3 -5 3 -4 1 C-2.68 1.33 -1.36 1.66 0 2 C0 1.34 0 0.68 0 0 Z " fill="#254344" transform="translate(487,476)"/>
<path d="M0 0 C0.95519531 -0.01224609 1.91039062 -0.02449219 2.89453125 -0.03710938 C12.64949209 -0.0569097 22.90804263 0.38744748 30.5 7.1875 C34.7446143 12.13072912 36.39724508 16.71394024 36.5 23.1875 C35.5430016 29.24848987 32.81916454 33.02219883 28.5 37.1875 C27.51 37.8475 26.52 38.5075 25.5 39.1875 C26.551875 39.703125 27.60375 40.21875 28.6875 40.75 C33.72062588 43.60857048 36.68458537 47.74125612 38.5 53.1875 C39.3667494 61.10893122 39.15683598 66.99569353 34.1328125 73.38671875 C27.35566439 80.8610376 20.01257304 82.3252789 10.1875 82.875 C6.95893978 83.01699369 3.73063801 83.10787595 0.5 83.1875 C-0.40008789 83.21473145 -1.30017578 83.24196289 -2.22753906 83.27001953 C-4.96422565 83.34643913 -7.70006545 83.39692513 -10.4375 83.4375 C-11.72491089 83.46976685 -11.72491089 83.46976685 -13.03833008 83.50268555 C-13.83907959 83.50695557 -14.6398291 83.51122559 -15.46484375 83.515625 C-16.52626587 83.52964355 -16.52626587 83.52964355 -17.60913086 83.54394531 C-20.24609853 83.04685392 -20.9249343 82.37901565 -22.5 80.1875 C-22.7804392 77.5756779 -22.87925334 75.20524619 -22.84057617 72.5949707 C-22.84101425 71.82400055 -22.84145233 71.0530304 -22.84190369 70.25869751 C-22.83981338 67.70996795 -22.81647146 65.16189592 -22.79296875 62.61328125 C-22.78737364 60.84637308 -22.78310314 59.07946026 -22.78010559 57.31254578 C-22.76865008 52.66160233 -22.73917687 48.01093985 -22.70599365 43.36010742 C-22.67530796 38.61445924 -22.66160347 33.86876567 -22.64648438 29.12304688 C-22.61430781 19.81107446 -22.56310295 10.49931059 -22.5 1.1875 C-14.97404796 0.46109878 -7.56197329 0.00510255 0 0 Z M-6.5 14.1875 C-6.5 20.7875 -6.5 27.3875 -6.5 34.1875 C6.30134608 34.92830693 6.30134608 34.92830693 17.9375 30.5 C20.07953454 27.32978888 20.43315978 24.99739273 20.5 21.1875 C19.2783907 18.29421482 18.36176151 16.72129149 15.68457031 15.06298828 C13.19903872 14.06688677 11.40480161 13.95795126 8.734375 13.9921875 C7.93225586 13.99718262 7.13013672 14.00217773 6.30371094 14.00732422 C5.29598633 14.02553223 4.28826172 14.04374023 3.25 14.0625 C0.0325 14.10375 -3.185 14.145 -6.5 14.1875 Z M-6.5 47.1875 C-6.5 54.4475 -6.5 61.7075 -6.5 69.1875 C-2.0140625 69.2803125 -2.0140625 69.2803125 2.5625 69.375 C3.49070557 69.40231201 4.41891113 69.42962402 5.37524414 69.45776367 C11.63988223 69.52001512 16.14883126 68.53331811 21.375 64.875 C23.11484784 62.26522824 23.37953233 60.31965947 23.5 57.1875 C22.34592858 53.18219331 21.52112269 50.8965676 18.05859375 48.4921875 C13.17047553 46.70005634 8.77886965 46.86487534 3.625 47 C0.28375 47.061875 -3.0575 47.12375 -6.5 47.1875 Z " fill="#264243" transform="translate(750.5,476.8125)"/>
<path d="M0 0 C0.66 0 1.32 0 2 0 C3.07461068 3.22383203 3.11034442 5.50067092 3.08520508 8.88916016 C3.07801956 10.10117096 3.07083405 11.31318176 3.06343079 12.56192017 C3.04894394 13.87437714 3.03445709 15.18683411 3.01953125 16.5390625 C3.01257421 17.20909679 3.00561718 17.87913109 2.99844933 18.56946945 C2.96105409 22.12014129 2.91706413 25.67066358 2.86791992 29.22119141 C2.81875823 32.86907008 2.7924302 36.51673144 2.77148914 40.16486549 C2.75099505 42.9860125 2.71307169 45.80674174 2.6706295 48.62763596 C2.64509888 50.61977039 2.63799082 52.61211384 2.63130188 54.60440063 C2.44840441 64.4156841 0.56969405 72.06623806 -6.16015625 79.4296875 C-13.60596326 85.7847075 -22.16356645 87.3672593 -31.6640625 87.28515625 C-39.73672079 86.59510466 -47.6389864 84.08881088 -54 79 C-53.43244703 75.02712922 -52.17597408 72.3546267 -50 69 C-49.505 68.01 -49.505 68.01 -49 67 C-45.85413894 67.9737189 -43.02488017 68.98647817 -40.125 70.5625 C-33.39510254 73.65825283 -26.88528884 73.5395444 -20 71 C-17.08957149 68.76120884 -15.22472635 66.470058 -14 63 C-13.83275263 59.83304044 -13.83275263 59.83304044 -14 57 C-14.57105469 57.28875 -15.14210938 57.5775 -15.73046875 57.875 C-23.34885674 61.36322852 -31.24034486 62.7316005 -39.4296875 60.26953125 C-47.22630158 56.66543606 -52.73468114 49.88090168 -55.79296875 41.94140625 C-58.31678483 32.70999845 -57.33906099 22.63762904 -52.65625 14.29296875 C-48.12349213 8.01766481 -42.51896735 3.26966967 -34.89453125 1.515625 C-27.14762332 0.52727652 -19.45932723 1.26316003 -13 6 C-12.67 4.68 -12.34 3.36 -12 2 C-6.06 1.505 -6.06 1.505 0 1 C0 0.67 0 0.34 0 0 Z M-13 6 C-12 8 -12 8 -12 8 Z M-38 19 C-42.15306084 24.58515079 -41.75442492 31.34580266 -41 38 C-38.76304486 42.90409397 -35.81422112 45.59288944 -31 48 C-25.70385577 48.94271367 -21.4809546 48.05519632 -17 45 C-12.86318396 39.63331973 -11.56437052 35.7522569 -12 29 C-13.00832427 24.29184023 -14.07319923 20.90419587 -17.5625 17.5 C-23.95980921 13.56319433 -32.8062168 12.83238245 -38 19 Z " fill="#264142" transform="translate(945,498)"/>
<path d="M0 0 C6.32112421 0.20365456 9.17526226 2.25269054 13.5625 6.375 C14.79194249 7.48045956 16.02377746 8.58326325 17.2578125 9.68359375 C18.19028809 10.52059814 18.19028809 10.52059814 19.14160156 11.37451172 C21.97764851 13.85512136 24.9492712 16.14460253 27.9375 18.4375 C33.1076402 22.43981058 38.12088232 26.59364021 43.0625 30.875 C43.68181396 31.4105249 44.30112793 31.9460498 44.93920898 32.49780273 C48.43033464 35.54542879 51.7619399 38.68470177 55 42 C55.33 42.33 55.66 42.66 56 43 C55.88645329 47.44454277 55.42477695 49.50717947 52.48828125 52.9140625 C51.4448249 53.83514629 50.3856318 54.73866786 49.3125 55.625 C48.79494141 56.07617188 48.27738281 56.52734375 47.74414062 56.9921875 C45.62019353 58.83311798 43.46713145 60.62855876 41.26708984 62.37792969 C39.81181152 63.54540246 38.40160444 64.7686054 37 66 C37 66.66 37 67.32 37 68 C36.40179443 68.11609619 35.80358887 68.23219238 35.18725586 68.35180664 C31.65118287 69.39972201 29.2546076 72.01757787 26.5625 74.4375 C25.31572643 75.52694576 24.06698289 76.61414066 22.81640625 77.69921875 C21.86725342 78.52365479 21.86725342 78.52365479 20.89892578 79.36474609 C17.9754685 81.88227205 15.01467345 84.3425862 12 86.75 C10.989375 87.56984375 9.97875 88.3896875 8.9375 89.234375 C5.58566737 91.24904036 3.84187393 91.49831838 0 91 C-3.73400421 88.92555322 -4.78947087 87.64328346 -6.125 83.5625 C-6 80 -6 80 -4.1875 77.625 C-3.13664842 76.73604432 -2.07160704 75.86382267 -1 75 C0.67196281 73.50590558 2.3381591 72.00534467 4 70.5 C4.86882812 69.72527344 5.73765625 68.95054687 6.6328125 68.15234375 C8.4491004 66.50090047 10.18106672 64.83534321 11.875 63.0625 C14 61 14 61 15.91699219 60.04736328 C18.06823289 58.96569162 19.64078152 57.75709757 21.453125 56.1796875 C22.071875 55.64472656 22.690625 55.10976563 23.328125 54.55859375 C23.96234375 54.00300781 24.5965625 53.44742188 25.25 52.875 C25.8996875 52.31167969 26.549375 51.74835937 27.21875 51.16796875 C28.815727 49.78235636 30.40830122 48.39167246 32 47 C30.15734734 42.92480944 27.47922831 40.59282706 24.0625 37.8125 C23.19069092 37.08957764 23.19069092 37.08957764 22.30126953 36.35205078 C20.53982067 34.89434972 18.77077799 33.44634527 17 32 C16.03707031 31.20722656 15.07414062 30.41445313 14.08203125 29.59765625 C10.38140793 26.55919352 6.67906401 23.53073311 2.90625 20.58203125 C1.9059375 19.79183594 0.905625 19.00164062 -0.125 18.1875 C-1.03507812 17.47980469 -1.94515625 16.77210938 -2.8828125 16.04296875 C-5.05098577 13.95080155 -5.66926744 12.94351974 -6 10 C-6.66 10 -7.32 10 -8 10 C-6.44303593 6.17836093 -3.96591316 3.81381505 -1 1 C-0.67 0.67 -0.34 0.34 0 0 Z " fill="#1F524D" transform="translate(321,476)"/>
<path d="M0 0 C6.61951185 4.62067886 9.21443267 10.10658277 10.6875 17.9375 C10.92951878 20.90168653 10.92276236 23.84007469 10.8828125 26.8125 C10.8799826 27.62243408 10.87715271 28.43236816 10.87423706 29.2668457 C10.86314715 31.82388834 10.83806452 34.38056535 10.8125 36.9375 C10.8024557 38.68358865 10.7933324 40.42968285 10.78515625 42.17578125 C10.76324466 46.42982585 10.72879382 50.68360119 10.6875 54.9375 C11.3475 54.9375 12.0075 54.9375 12.6875 54.9375 C12.6875 55.5975 12.6875 56.2575 12.6875 56.9375 C9.22527385 58.00473961 6.04710734 58.03923486 2.4375 58 C0.82101562 57.98646484 0.82101562 57.98646484 -0.828125 57.97265625 C-1.64796875 57.96105469 -2.4678125 57.94945312 -3.3125 57.9375 C-3.6425 56.2875 -3.9725 54.6375 -4.3125 52.9375 C-5.611875 53.865625 -5.611875 53.865625 -6.9375 54.8125 C-13.52782019 58.96196086 -19.63098321 59.82005725 -27.3125 58.9375 C-32.68447832 57.28389602 -36.22243678 54.69144341 -39.3125 49.9375 C-39.725 49.339375 -40.1375 48.74125 -40.5625 48.125 C-42.2701095 43.14447229 -41.86906516 38.56261953 -39.8125 33.8125 C-36.6450933 28.12683709 -31.81212182 24.87485818 -25.8125 22.625 C-18.54260278 21.19698447 -11.70349777 20.80119061 -4.3125 20.9375 C-5.76183518 15.42939362 -5.76183518 15.42939362 -9.5 11.4375 C-18.00147955 9.92612586 -22.13265946 11.48383951 -29.3125 15.9375 C-31.2925 16.9275 -31.2925 16.9275 -33.3125 17.9375 C-35.6225 15.2975 -37.9325 12.6575 -40.3125 9.9375 C-31.14073169 -1.69498664 -14.0706523 -7.27381178 0 0 Z M-24.5625 35.1875 C-26.58131541 37.83383665 -26.58131541 37.83383665 -26.375 41.0625 C-25.12938745 44.43298101 -24.57043799 45.43383631 -21.3125 46.9375 C-16.12938182 47.53228405 -12.1935018 47.23898063 -7.72265625 44.41796875 C-4.61765745 41.15815007 -4.3125 36.2788945 -4.3125 31.9375 C-11.29707659 30.0497766 -18.63832564 31.08614852 -24.5625 35.1875 Z " fill="#264244" transform="translate(617.3125,502.0625)"/>
<path d="M0 0 C5.68923007 7.42564521 7.03977235 16.29487946 6.01171875 25.3671875 C4.57450975 33.64779567 1.33676533 40.13765855 -5.23828125 45.4921875 C-12.7183612 50.49307428 -20.49698922 52.16004002 -29.42578125 51.0546875 C-38.76856992 48.74076115 -44.65839406 44.79321817 -50.34765625 37.09375 C-54.59757548 29.05585928 -54.84907358 18.07171974 -52.7734375 9.296875 C-49.30464868 0.75144674 -43.26142092 -5.31311424 -34.890625 -9.0390625 C-22.18861365 -13.70921564 -9.10774802 -9.53755186 0 0 Z M-36.23828125 9.1171875 C-39.54544777 14.51309077 -38.95482787 20.95595564 -38.42578125 27.0546875 C-37.21214735 30.94623098 -35.27302952 33.38580728 -32.05078125 35.9296875 C-26.42941029 38.33884648 -22.23467017 38.404238 -16.55078125 36.234375 C-12.58719414 34.03400127 -10.77617246 31.34607494 -9.42578125 27.0546875 C-8.62939008 20.81866024 -8.45388837 15.22275623 -11.05078125 9.4296875 C-15.06087595 5.4195928 -18.14270242 2.84627131 -23.92578125 2.5546875 C-29.35002813 2.81037591 -32.68068208 5.068885 -36.23828125 9.1171875 Z " fill="#264243" transform="translate(876.42578125,509.9453125)"/>
<path d="M0 0 C2.81831785 2.59581908 3.85564038 4.23008205 4.5625 8 C3.81631115 11.97967384 1.96166695 13.4985921 -1 16 C-1.71671875 16.65871094 -2.4334375 17.31742187 -3.171875 17.99609375 C-8.31110354 22.71796456 -13.61554126 27.19193168 -19.0390625 31.58203125 C-24.42299839 35.97867546 -29.70533131 40.49658545 -35 45 C-27.86760572 51.6081564 -20.57923116 57.90459015 -13 64 C-11.03932787 65.58043624 -9.08095826 67.16373358 -7.125 68.75 C-5.82949219 69.79414062 -5.82949219 69.79414062 -4.5078125 70.859375 C2.49179494 76.8341178 2.49179494 76.8341178 4.0625 80.4375 C3.96807948 84.30874139 2.50252563 86.11247042 0 89 C-2.875 90.625 -2.875 90.625 -6 91 C-10.43596377 88.39024663 -14.30731625 85.17097838 -18.1875 81.8125 C-19.33789065 80.82736427 -20.48894214 79.84299975 -21.640625 78.859375 C-22.20845703 78.37404297 -22.77628906 77.88871094 -23.36132812 77.38867188 C-25.69285501 75.41284874 -28.06351121 73.48697612 -30.4375 71.5625 C-33.52481325 69.05462384 -36.57708427 66.51515161 -39.5859375 63.9140625 C-40.20412354 63.37966553 -40.82230957 62.84526855 -41.45922852 62.29467773 C-42.66035441 61.25304794 -43.85892862 60.20846552 -45.05444336 59.16040039 C-50.49963939 53.8537975 -50.49963939 53.8537975 -57 51 C-57.10933628 49.60596244 -57.18619553 48.20936224 -57.25 46.8125 C-57.29640625 46.03519531 -57.3428125 45.25789062 -57.390625 44.45703125 C-56.58198721 39.37069958 -52.46301137 36.36122624 -48.5625 33.375 C-44.48266898 30.18913195 -40.50044724 26.92008754 -36.5625 23.5625 C-31.65736405 19.3898701 -26.71064772 15.27507171 -21.71484375 11.2109375 C-19.78504028 9.63932777 -17.86116581 8.06042543 -15.94140625 6.4765625 C-14.95011719 5.65929687 -13.95882812 4.84203125 -12.9375 4 C-11.58978516 2.88625 -11.58978516 2.88625 -10.21484375 1.75 C-6.44779058 -1.22643707 -4.65814566 -1.30428079 0 0 Z " fill="#1F514C" transform="translate(238,477)"/>
<path d="M0 0 C3.62216004 0.12026703 5.45087477 0.22058236 8.4375 2.44140625 C10 4.62890625 10 4.62890625 11 7.62890625 C9.88489759 12.87646091 8.32702671 17.92706481 6.66503906 23.02856445 C6.32792908 24.06718376 6.32792908 24.06718376 5.98400879 25.12678528 C5.24706079 27.39524555 4.50633705 29.6624538 3.765625 31.9296875 C3.24451177 33.53175052 2.72366305 35.1338996 2.20306396 36.73612976 C0.83334659 40.94962479 -0.53946311 45.1621054 -1.91308594 49.37432861 C-3.82826122 55.24877123 -5.73972621 61.12442163 -7.65075684 67.00021362 C-8.69786147 70.21965682 -9.74695722 73.4384412 -10.79748535 76.6567688 C-12.90805281 83.12988812 -15.0106589 89.60245959 -16.99804688 96.11474609 C-17.27424866 97.01678268 -17.55045044 97.91881927 -17.83502197 98.84819031 C-18.30775787 100.40595702 -18.77264465 101.96614353 -19.22698975 103.52937317 C-20.25333928 106.91836342 -21.05542499 109.51643239 -24 111.62890625 C-27.56317503 112.71335082 -29.30293543 112.9299114 -32.75 111.44140625 C-35.11616715 109.53532716 -35.9187957 108.42110833 -37 105.62890625 C-35.73471564 97.4045579 -32.87984178 89.48647629 -30.375 81.56640625 C-29.92236767 80.12608213 -29.46981337 78.6857335 -29.01733398 77.24536133 C-26.15016221 68.14369339 -23.18974625 59.07696577 -20.11962891 50.04150391 C-18.04806961 43.90358887 -16.0950023 37.73685566 -14.19921875 31.54296875 C-13.70633956 29.94114958 -13.2134195 28.33934297 -12.72045898 26.73754883 C-11.75322252 23.59252557 -10.8008032 20.44348631 -9.85571289 17.29174805 C-9.40955319 15.83756323 -8.96288054 14.38353565 -8.515625 12.9296875 C-8.32107224 12.26615265 -8.12651947 11.6026178 -7.92607117 10.91897583 C-6.54840354 6.49849353 -4.75904258 1.49649581 0 0 Z " fill="#1F514B" transform="translate(291,465.37109375)"/>
<path d="M0 0 C12.25192713 -1.92187092 12.25192713 -1.92187092 18 0 C22.77789793 4.00702303 25.84417642 10.21839746 28 16 C28 16.66 28 17.32 28 18 C28.66 18 29.32 18 30 18 C30.25652344 17.29230469 30.51304687 16.58460938 30.77734375 15.85546875 C32.10099521 12.7641294 33.72395872 10.12596714 35.5625 7.3125 C37.92275628 3.73715059 37.92275628 3.73715059 40 0 C45.94 0 51.88 0 58 0 C53.40701528 7.34877556 48.63084384 14.51627611 43.64526367 21.60351562 C43.18740479 22.26029297 42.7295459 22.91707031 42.2578125 23.59375 C41.8467627 24.17833984 41.43571289 24.76292969 41.01220703 25.36523438 C39.82388386 27.14408771 39.82388386 27.14408771 39 30 C40.37186694 32.43853881 41.77691557 34.65399075 43.375 36.9375 C44.05369141 37.92979614 44.05369141 37.92979614 44.74609375 38.94213867 C51.7918819 49.44859653 51.7918819 49.44859653 60 59 C55.58811651 59.65361237 51.20824535 60.1339056 46.75 60.3125 C45.53570313 60.36857422 45.53570313 60.36857422 44.296875 60.42578125 C41.03095742 59.82036456 40.09010983 58.57589708 38 56 C36.31698448 53.47227572 34.77396942 50.87599291 33.25 48.25 C32.63318359 47.20392578 32.63318359 47.20392578 32.00390625 46.13671875 C30.99719634 44.42765309 29.99784936 42.71425404 29 41 C28.67 41.99 28.34 42.98 28 44 C27.34 44 26.68 44 26 44 C24.41688317 46.4544218 22.93962448 48.90090925 21.5 51.4375 C17.25813138 58.87093431 17.25813138 58.87093431 15 60 C12.28239892 60.07181821 9.59140612 60.09299506 6.875 60.0625 C6.12089844 60.05798828 5.36679687 60.05347656 4.58984375 60.04882812 C2.72652873 60.03703499 0.86325445 60.01909942 -1 60 C0.55354689 56.64575103 2.49576202 53.73658431 4.625 50.71875 C5.68460938 49.20861328 5.68460938 49.20861328 6.765625 47.66796875 C9 44.5 9 44.5 11.234375 41.33203125 C11.94078125 40.32527344 12.6471875 39.31851563 13.375 38.28125 C14.02210938 37.36408203 14.66921875 36.44691406 15.3359375 35.50195312 C16.74856463 33.3780384 17.93001893 31.31018641 19 29 C18.45996338 28.19256348 17.91992676 27.38512695 17.36352539 26.55322266 C15.36268323 23.56100068 13.36336205 20.56776507 11.36450195 17.57421875 C10.49870684 16.27804246 9.63249794 14.98214247 8.76586914 13.68652344 C7.52121164 11.82559305 6.27803927 9.96367835 5.03515625 8.1015625 C4.64658951 7.52129303 4.25802277 6.94102356 3.85768127 6.34317017 C1.11387171 2.22774341 1.11387171 2.22774341 0 0 Z " fill="#264243" transform="translate(634,500)"/>
<path d="M0 0 C4.62 0 9.24 0 14 0 C14.99874578 3.99498313 15.13400014 7.54253592 15.11352539 11.61425781 C15.11367142 12.37562042 15.11381744 13.13698303 15.1139679 13.92141724 C15.11327255 16.43201571 15.10549787 18.94253952 15.09765625 21.453125 C15.09579073 23.19618692 15.09436746 24.93924937 15.09336853 26.68231201 C15.08955394 31.26572116 15.07973267 35.84909851 15.06866455 40.43249512 C15.0584277 45.11124237 15.05386604 49.78999477 15.04882812 54.46875 C15.03810946 63.64584728 15.02104572 72.822921 15 82 C9.92928099 82.71167986 5.11791642 83.10662326 0 83 C-0.15366379 72.47353204 -0.30184555 61.94700272 -0.4429636 51.42035866 C-0.5086589 46.53280019 -0.57626635 41.64528355 -0.64819336 36.7578125 C-0.7174938 32.04409399 -0.78183729 27.33033185 -0.84269524 22.61649704 C-0.86683311 20.81508284 -0.89277902 19.01369196 -0.92053413 17.21232986 C-0.95900443 14.69578958 -0.99113528 12.17924426 -1.02172852 9.66259766 C-1.03467453 8.91237839 -1.04762054 8.16215912 -1.06095886 7.38920593 C-1.11405216 2.22810432 -1.11405216 2.22810432 0 0 Z " fill="#274445" transform="translate(799,477)"/>
<path d="M0 0 C0 19.47 0 38.94 0 59 C-3.54988771 59.88747193 -6.14180778 60.10545467 -9.75 60.0625 C-10.73484375 60.05347656 -11.7196875 60.04445313 -12.734375 60.03515625 C-13.48203125 60.02355469 -14.2296875 60.01195312 -15 60 C-16.0427763 56.87167111 -16.12076845 54.70810913 -16.11352539 51.42700195 C-16.11344986 50.28604568 -16.11337433 49.14508942 -16.11329651 47.96955872 C-16.10813522 46.73823715 -16.10297394 45.50691559 -16.09765625 44.23828125 C-16.0962413 42.97735153 -16.09482635 41.71642181 -16.09336853 40.4172821 C-16.08871575 37.06848291 -16.07973342 33.71975189 -16.06866455 30.37097168 C-16.05842687 26.95239857 -16.05386586 23.53381841 -16.04882812 20.11523438 C-16.03779099 13.41013739 -16.02104686 6.70507263 -16 0 C-14.08416353 -0.1958009 -12.16727461 -0.38132214 -10.25 -0.5625 C-8.64898438 -0.71912109 -8.64898438 -0.71912109 -7.015625 -0.87890625 C-4 -1 -4 -1 0 0 Z " fill="#264344" transform="translate(716,500)"/>
<path d="M0 0 C0 26.73 0 53.46 0 81 C-9 82.125 -9 82.125 -14 81 C-13.505 80.01 -13.505 80.01 -13 79 C-9.37 79 -5.74 79 -2 79 C-2.07105453 78.23871292 -2.14210907 77.47742584 -2.21531677 76.69306946 C-2.96094065 68.02456393 -3.1320303 59.42637336 -3.09765625 50.73046875 C-3.09578513 49.31415355 -3.09436452 47.89783769 -3.09336853 46.48152161 C-3.08959793 42.80079275 -3.0798161 39.120105 -3.06866455 35.43939209 C-3.05833128 31.6646785 -3.0538457 27.88995811 -3.04882812 24.11523438 C-3.0381874 16.74347109 -3.02117889 9.37174136 -3 2 C-6.3 2 -9.6 2 -13 2 C-13 26.42 -13 50.84 -13 76 C-13.33 76 -13.66 76 -14 76 C-14 50.92 -14 25.84 -14 0 C-5 -1 -5 -1 0 0 Z " fill="#1F3535" transform="translate(814,478)"/>
<path d="M0 0 C0 18.81 0 37.62 0 57 C-1.485 57.495 -1.485 57.495 -3 58 C-3 39.52 -3 21.04 -3 2 C-6.63 2 -10.26 2 -14 2 C-13.67 2.66 -13.34 3.32 -13 4 C-12.90948931 5.69543591 -12.88245128 7.39443978 -12.88647461 9.09228516 C-12.88655014 10.15323395 -12.88662567 11.21418274 -12.88670349 12.30728149 C-12.89186478 13.45626923 -12.89702606 14.60525696 -12.90234375 15.7890625 C-12.90446617 17.54940323 -12.90446617 17.54940323 -12.90663147 19.3453064 C-12.91224311 23.10522985 -12.92479762 26.86509445 -12.9375 30.625 C-12.9425135 33.16926998 -12.94707667 35.71354088 -12.95117188 38.2578125 C-12.96221632 44.50522853 -12.97896582 50.75261006 -13 57 C-13.99 57.495 -13.99 57.495 -15 58 C-16.30755782 52.03681244 -16.12597009 46.10894288 -16.09765625 40.0390625 C-16.0962413 38.89335785 -16.09482635 37.7476532 -16.09336853 36.56723022 C-16.0877858 32.91979322 -16.07523641 29.27241835 -16.0625 25.625 C-16.05748277 23.14713631 -16.05292025 20.66927165 -16.04882812 18.19140625 C-16.03782201 12.12758309 -16.02110103 6.06379598 -16 0 C-14.08416353 -0.1958009 -12.16727461 -0.38132214 -10.25 -0.5625 C-8.64898438 -0.71912109 -8.64898438 -0.71912109 -7.015625 -0.87890625 C-4 -1 -4 -1 0 0 Z " fill="#1B2E2E" transform="translate(716,500)"/>
<path d="M0 0 C32.81660447 -0.04574731 65.63320068 -0.08100387 98.44982975 -0.10213066 C102.3214523 -0.10463216 106.1930748 -0.1072208 110.06469727 -0.10986328 C110.83548895 -0.1103879 111.60628063 -0.11091252 112.40042963 -0.11145304 C124.89174179 -0.12016289 137.38303561 -0.13593604 149.87433688 -0.15430559 C162.6853008 -0.17298854 175.49625509 -0.18411332 188.30723208 -0.18817699 C196.21646878 -0.19092539 204.12565361 -0.19961545 212.03487434 -0.21583293 C218.09296177 -0.22762428 224.1510043 -0.22891541 230.20910454 -0.22621536 C232.69924871 -0.22676765 235.18939476 -0.23077309 237.67952728 -0.23841095 C241.06794469 -0.24829824 244.45613655 -0.24599165 247.84455872 -0.24050903 C248.83968485 -0.24633472 249.83481099 -0.2521604 250.86009246 -0.25816262 C252.21712627 -0.25218947 252.21712627 -0.25218947 253.6015749 -0.24609566 C254.3841785 -0.2468551 255.1667821 -0.24761454 255.97310096 -0.24839699 C258 0 258 0 261 2 C257.98968256 2.93423645 257.13349732 3.04449911 254 2 C251.45490798 1.90863306 248.93784831 1.87401083 246.39295959 1.88647461 C245.6107375 1.88632575 244.82851541 1.88617689 244.02258962 1.88602352 C241.39271818 1.88671982 238.76291599 1.89457056 236.13305664 1.90234375 C234.2506311 1.90426237 232.36820504 1.90572643 230.48577881 1.9067688 C226.42610294 1.90993453 222.36644777 1.91621064 218.30677986 1.92483521 C211.88050109 1.93834534 205.45422925 1.94424985 199.02793884 1.94897461 C184.2141725 1.96103124 169.40042397 1.98302736 154.58666992 2.00520325 C141.03458561 2.0254048 127.48250752 2.04348053 113.93041128 2.05341816 C107.55033806 2.05838527 101.17029694 2.06822352 94.79023659 2.08184814 C90.80612187 2.08934435 86.82201146 2.09263085 82.83789062 2.0948143 C80.9997729 2.0966757 79.16165592 2.10025521 77.32354546 2.10574722 C67.82896083 2.13320433 58.45262883 2.04058721 49 1 C48.67 1.66 48.34 2.32 48 3 C47.01 2.67 46.02 2.34 45 2 C43.48092376 1.91330471 41.95830999 1.882306 40.43676758 1.88647461 C39.51603958 1.88655014 38.59531158 1.88662567 37.64668274 1.88670349 C36.65597275 1.89186478 35.66526276 1.89702606 34.64453125 1.90234375 C33.62775803 1.9037587 32.6109848 1.90517365 31.56340027 1.90663147 C28.31307036 1.91223293 25.06280912 1.92478568 21.8125 1.9375 C19.61002704 1.94251481 17.40755299 1.94707775 15.20507812 1.95117188 C9.80336196 1.96220283 4.40168588 1.97894238 -1 2 C-0.67 1.34 -0.34 0.68 0 0 Z " fill="#295B54" transform="translate(147,444)"/>
<path d="M0 0 C3.2885563 2.5021624 4.79401403 3.90140815 5.5625 8 C4.84210667 11.84209775 3.95115708 13.41773756 1 16 C-1.72914435 16.97998503 -4.11359431 17.28118067 -7 17 C-10.77523886 15.03031016 -11.80076388 13.43831947 -13.5625 9.5625 C-14 6 -14 6 -12.375 3.1875 C-8.1319846 -0.7205405 -5.71370819 -1.74909434 0 0 Z " fill="#274345" transform="translate(712,477)"/>
<path d="M0 0 C1.64767247 0.28109113 3.29313145 0.57518526 4.9375 0.875 C5.85402344 1.03742188 6.77054687 1.19984375 7.71484375 1.3671875 C8.46894531 1.57601563 9.22304688 1.78484375 10 2 C10.33 2.66 10.66 3.32 11 4 C6.71 4 2.42 4 -2 4 C-2 27.76 -2 51.52 -2 76 C-2.99 76.495 -2.99 76.495 -4 77 C-4.15367978 67.38622526 -4.30186146 57.77238629 -4.4429636 48.15841866 C-4.50865228 43.69459508 -4.57625692 39.23081745 -4.64819336 34.76708984 C-4.71750578 30.4618594 -4.78184661 26.15658109 -4.84269524 21.85122299 C-4.86682871 20.2061072 -4.89277396 18.56101699 -4.92053413 16.9159584 C-4.9590177 14.61735282 -4.99114215 12.31874182 -5.02172852 10.02001953 C-5.04171402 8.7098587 -5.06169952 7.39969788 -5.08229065 6.04983521 C-5 3 -5 3 -4 1 C-2.02 1.495 -2.02 1.495 0 2 C0 1.34 0 0.68 0 0 Z " fill="#14292B" transform="translate(487,476)"/>
<path d="M0 0 C0.33 0 0.66 0 1 0 C1 26.07 1 52.14 1 79 C-8 80 -8 80 -12 80 C-12 61.52 -12 43.04 -12 24 C-11.67 24 -11.34 24 -11 24 C-11 41.49 -11 58.98 -11 77 C-7.37 77 -3.74 77 0 77 C0 51.59 0 26.18 0 0 Z " fill="#172B2B" transform="translate(562,480)"/>
<path d="M0 0 C2 2 2 2 2.24050903 5.04983521 C2.23606781 6.35999603 2.23162659 7.67015686 2.22705078 9.02001953 C2.22734283 9.74207581 2.22763489 10.46413208 2.22793579 11.20806885 C2.22654008 13.59977142 2.21096783 15.99116421 2.1953125 18.3828125 C2.19158322 20.0390506 2.18873585 21.69529089 2.18673706 23.35153198 C2.17909389 27.7147224 2.1594396 32.07778007 2.1373291 36.44091797 C2.11688535 40.89158329 2.1077385 45.34227003 2.09765625 49.79296875 C2.07619429 58.52870681 2.04205018 67.2643369 2 76 C1.01 76.495 1.01 76.495 0 77 C-0.9702016 60.22937239 -1.11129723 43.48211534 -1.125 26.6875 C-1.12749756 25.60082031 -1.12999512 24.51414062 -1.13256836 23.39453125 C-1.13846333 20.26689473 -1.13696542 17.13935639 -1.1328125 14.01171875 C-1.13479645 13.06161423 -1.1367804 12.1115097 -1.13882446 11.13261414 C-1.13571259 10.25184708 -1.13260071 9.37108002 -1.12939453 8.46362305 C-1.12859894 7.69519577 -1.12780334 6.92676849 -1.12698364 6.13505554 C-0.99856457 3.97586521 -0.59326952 2.07563361 0 0 Z " fill="#103631" transform="translate(127,524)"/>
<path d="M0 0 C0.33 0 0.66 0 1 0 C1 17.49 1 34.98 1 53 C0.01 53.495 0.01 53.495 -1 54 C-2.15921454 48.46120931 -2.16150175 43.05278586 -2.16796875 37.421875 C-2.17129715 36.41408997 -2.17462555 35.40630493 -2.17805481 34.36798096 C-2.18310154 32.24662735 -2.18546383 30.12526586 -2.18530273 28.00390625 C-2.18750185 24.74726535 -2.20571571 21.49095659 -2.22460938 18.234375 C-2.22754116 16.17187616 -2.22952739 14.10937571 -2.23046875 12.046875 C-2.23765427 11.06982605 -2.24483978 10.0927771 -2.25224304 9.08612061 C-2.24916641 8.18468323 -2.24608978 7.28324585 -2.24291992 6.35449219 C-2.24434494 5.55984558 -2.24576996 4.76519897 -2.24723816 3.94647217 C-2 2 -2 2 0 0 Z " fill="#223738" transform="translate(702,504)"/>
<path d="M0 0 C0.33 0 0.66 0 1 0 C1.76126389 16.41778969 2.12535145 32.82439934 2.17724609 49.25912476 C2.18408978 51.2135871 2.19435144 53.16804043 2.20800781 55.12246704 C2.22583095 57.88772138 2.23016613 60.65266376 2.23046875 63.41796875 C2.2411866 64.67545425 2.2411866 64.67545425 2.25212097 65.95834351 C2.22914345 71.77085655 2.22914345 71.77085655 0 74 C-0.84077571 64.83669388 -1.15817514 55.76208436 -1.125 46.5625 C-1.12411377 45.90933807 -1.12322754 45.25617615 -1.12231445 44.58322144 C-1.09895823 29.71092141 -0.60302272 14.85905726 0 0 Z " fill="#0E2D27" transform="translate(127,449)"/>
<path d="M0 0 C-0.33 3.3 -0.66 6.6 -1 10 C-1.33 10 -1.66 10 -2 10 C-2 7.36 -2 4.72 -2 2 C-5.63 2 -9.26 2 -13 2 C-13 26.42 -13 50.84 -13 76 C-13.33 76 -13.66 76 -14 76 C-14 50.92 -14 25.84 -14 0 C-3.875 -1.125 -3.875 -1.125 0 0 Z " fill="#142525" transform="translate(814,478)"/>
<path d="M0 0 C0.33 0 0.66 0 1 0 C1 29.04 1 58.08 1 88 C0.67 88 0.34 88 0 88 C-0.01030746 87.35076065 -0.02061493 86.7015213 -0.03123474 86.03260803 C-0.13906136 79.30100948 -0.25367781 72.5695513 -0.37231445 65.83813477 C-0.41574006 63.32286504 -0.45740929 60.80756437 -0.49731445 58.29223633 C-0.55483293 54.68561456 -0.61857967 51.07914969 -0.68359375 47.47265625 C-0.70030624 46.34038101 -0.71701874 45.20810577 -0.73423767 44.04151917 C-0.75418289 43.00051559 -0.77412811 41.95951202 -0.79467773 40.88696289 C-0.81022202 39.96540909 -0.8257663 39.04385529 -0.84178162 38.09437561 C-0.77022756 36.01249529 -0.77022756 36.01249529 -2 35 C-2.04092937 32.66702567 -2.04241723 30.33294775 -2 28 C-1.34 28 -0.68 28 0 28 C0 18.76 0 9.52 0 0 Z " fill="#194843" transform="translate(412,484)"/>
<path d="M0 0 C0.66 0 1.32 0 2 0 C2 12.21 2 24.42 2 37 C2.66 37 3.32 37 4 37 C4 37.66 4 38.32 4 39 C-0.95 39 -5.9 39 -11 39 C-11 36.69 -11 34.38 -11 32 C-10.67 32 -10.34 32 -10 32 C-10 33.98 -10 35.96 -10 38 C-6.7 38 -3.4 38 0 38 C0 25.46 0 12.92 0 0 Z " fill="#253A39" transform="translate(626,520)"/>
<path d="M0 0 C0.33 0 0.66 0 1 0 C1 6.6 1 13.2 1 20 C3.31 19.835 5.62 19.67 8 19.5 C13.34400813 19.1311093 18.64297833 18.89067303 24 19 C21.41028148 21.68145241 19.37542567 22.22521128 15.77734375 22.328125 C14.16388708 22.31753628 12.55047049 22.29099687 10.9375 22.25 C10.12216797 22.24484375 9.30683594 22.2396875 8.46679688 22.234375 C4.99574441 22.18874079 2.32327823 22.10775941 -1 21 C-1.02710123 18.4374282 -1.04688771 15.87514635 -1.0625 13.3125 C-1.07087891 12.59126953 -1.07925781 11.87003906 -1.08789062 11.12695312 C-1.10543632 7.28444618 -0.93524221 3.73360474 0 0 Z " fill="#1A302F" transform="translate(742,491)"/>
<path d="M0 0 C3.52029646 3.13486254 5.57686453 6.56767413 7.63671875 10.7421875 C7.96162796 11.38817902 8.28653717 12.03417053 8.62129211 12.69973755 C9.30330118 14.06104485 9.98130911 15.42436329 10.65551758 16.78955078 C11.68362379 18.86716689 12.72850602 20.93570079 13.77539062 23.00390625 C14.43852646 24.33282162 15.10066928 25.66223307 15.76171875 26.9921875 C16.22731453 27.91123367 16.22731453 27.91123367 16.70231628 28.84884644 C18.51604006 32.55588538 19.52402413 35.9024686 20 40 C15.59647987 36.25700789 13.31793637 30.97455952 11.3125 25.6875 C8.98105815 19.59932189 5.98017533 13.85750453 2.99731445 8.0690918 C2.61148193 7.314104 2.22564941 6.55911621 1.828125 5.78125 C1.4765332 5.10126953 1.12494141 4.42128906 0.76269531 3.72070312 C0 2 0 2 0 0 Z " fill="#1E3433" transform="translate(501,483)"/>
<path d="M0 0 C4.44784203 0.5083248 6.83569223 1.83569223 10 5 C14.75295064 11.26525312 15.02601806 18.3936546 14 26 C12.92918627 28.5616449 11.89375773 29.92870249 10 32 C9.34 31.67 8.68 31.34 8 31 C8.7425 29.8553125 8.7425 29.8553125 9.5 28.6875 C11.78586834 23.06807367 12.05603761 17.46334913 10.2734375 11.6171875 C8.29559588 7.25950394 6.35111105 5.17555552 2 3 C1.34 2.01 0.68 1.02 0 0 Z " fill="#213736" transform="translate(775,517)"/>
<path d="M0 0 C0.66 0.33 1.32 0.66 2 1 C2 11.56 2 22.12 2 33 C1.01 33.495 1.01 33.495 0 34 C-0.89902562 31.30292314 -1.12837799 29.74010623 -1.1328125 26.97265625 C-1.13474609 26.18544189 -1.13667969 25.39822754 -1.13867188 24.5871582 C-1.13416016 23.754021 -1.12964844 22.92088379 -1.125 22.0625 C-1.12306641 21.21453857 -1.12113281 20.36657715 -1.11914062 19.49291992 C-1.07447778 12.96035888 -0.72598482 6.49497132 0 0 Z " fill="#16433E" transform="translate(201,393)"/>
<path d="M0 0 C2 2 2 2 2.22705078 5.43994141 C2.22673369 6.91051979 2.21540987 8.38112142 2.1953125 9.8515625 C2.1924826 10.62559418 2.18965271 11.39962585 2.18673706 12.19711304 C2.17552754 14.67323157 2.15042203 17.1489905 2.125 19.625 C2.11497118 21.30207812 2.10584516 22.97916189 2.09765625 24.65625 C2.07558574 28.77097223 2.04105102 32.88542511 2 37 C-0.40563753 34.59436247 -0.60358311 33.32990189 -1 30 C-0.5 28 -0.5 28 0 26 C-0.165 25.175 -0.33 24.35 -0.5 23.5 C-1.0407405 20.79629751 -0.66964235 19.6177205 0 17 C0.07708723 15.63199181 0.10803609 14.26076408 0.09765625 12.890625 C0.09443359 12.13652344 0.09121094 11.38242187 0.08789062 10.60546875 C0.07951172 9.82816406 0.07113281 9.05085938 0.0625 8.25 C0.05573242 7.06083984 0.05573242 7.06083984 0.04882812 5.84765625 C0.03708565 3.89840492 0.01915146 1.94919262 0 0 Z " fill="#295A53" transform="translate(410,446)"/>
<path d="M0 0 C1.49836162 1.96852201 2.95815684 3.93680326 4.32421875 6 C7.77819262 11.06714791 11.01765817 14.29216974 17 16 C20.99840095 16.57470874 24.96420015 16.86547334 29 17 C26.55049379 19.44950621 25.75276979 19.32271254 22.375 19.375 C15.65592317 19.22956544 11.27148308 16.96173538 6.25 12.625 C0 5.33333333 0 5.33333333 0 0 Z " fill="#1C302F" transform="translate(891,540)"/>
<path d="M0 0 C7 8.44827586 7 8.44827586 7 12 C8.62490954 12.02698189 10.24994633 12.04638757 11.875 12.0625 C12.77992188 12.07410156 13.68484375 12.08570313 14.6171875 12.09765625 C17.0168585 12.16249257 17.0168585 12.16249257 19 11 C18.125 14.875 18.125 14.875 17 16 C15.48530552 16.23192865 13.96245438 16.41215238 12.4375 16.5625 C11.19806641 16.68818359 11.19806641 16.68818359 9.93359375 16.81640625 C9.29550781 16.87699219 8.65742187 16.93757812 8 17 C0 4.54150198 0 4.54150198 0 0 Z " fill="#1F3534" transform="translate(511,530)"/>
<path d="M0 0 C10.23 0 20.46 0 31 0 C26.49496697 3.37877478 26.49496697 3.37877478 22.48046875 3.36328125 C21.62259766 3.36263672 20.76472656 3.36199219 19.88085938 3.36132812 C18.99205078 3.34521484 18.10324219 3.32910156 17.1875 3.3125 C15.87168945 3.31733398 15.87168945 3.31733398 14.52929688 3.32226562 C9.31268238 3.27934658 4.93756943 2.69076388 0 1 C0 0.67 0 0.34 0 0 Z " fill="#1F3737" transform="translate(732,557)"/>
<path d="M0 0 C2.33524782 2.25740623 4.18705073 4.2805761 6 7 C5.77029539 11.16224762 2.89176128 14.39591481 0.5625 17.6875 C0.15451172 18.28111328 -0.25347656 18.87472656 -0.67382812 19.48632812 C-3.73677147 23.86838574 -3.73677147 23.86838574 -6 25 C-5.37695259 20.92546771 -3.23467379 18.10460299 -0.9375 14.75 C-0.20402344 13.67234375 0.52945313 12.5946875 1.28515625 11.484375 C1.85105469 10.66453125 2.41695312 9.8446875 3 9 C2.505 8.071875 2.01 7.14375 1.5 6.1875 C0 3 0 3 0 0 Z " fill="#203635" transform="translate(650,521)"/>
<path d="M0 0 C4.84882896 0.44880268 7.091597 2.51538352 10.5625 5.8125 C11.49191406 6.68519531 12.42132813 7.55789063 13.37890625 8.45703125 C14.24386719 9.29621094 15.10882813 10.13539063 16 11 C16.76699219 11.71027344 17.53398437 12.42054688 18.32421875 13.15234375 C20 15 20 15 20.25 17.75 C20.1675 18.4925 20.085 19.235 20 20 C19.34 20 18.68 20 18 20 C17.77957031 19.10410156 17.55914062 18.20820312 17.33203125 17.28515625 C15.74296964 13.36609229 14.03494628 11.96960078 10.6875 9.4375 C6.84429636 6.49611222 3.36309554 3.48561269 0 0 Z " fill="#1F4944" transform="translate(356,503)"/>
<path d="M0 0 C0.67998047 0.00386719 1.35996094 0.00773437 2.06054688 0.01171875 C3.37410156 0.00914062 4.68765625 0.0065625 6.04101562 0.00390625 C9.42512196 0.12119434 12.55602196 0.48672631 15.87304688 1.13671875 C15.87304688 1.79671875 15.87304688 2.45671875 15.87304688 3.13671875 C6.30304687 3.13671875 -3.26695312 3.13671875 -13.12695312 3.13671875 C-13.12695312 2.80671875 -13.12695312 2.47671875 -13.12695312 2.13671875 C-11.99257813 1.99234375 -10.85820313 1.84796875 -9.68945312 1.69921875 C-6.00321608 1.11718132 -3.87337677 0.00772358 0 0 Z " fill="#192B2C" transform="translate(744.126953125,476.86328125)"/>
<path d="M0 0 C0.7425 0.763125 1.485 1.52625 2.25 2.3125 C7.26194646 7.21053858 10.67996857 8.98540918 17.6875 9.5625 C18.68136719 9.64628906 19.67523437 9.73007812 20.69921875 9.81640625 C21.45847656 9.87699219 22.21773437 9.93757812 23 10 C23 10.66 23 11.32 23 12 C15.76958777 12.47848316 10.00650701 12.38121687 4 8 C0 3.9 0 3.9 0 0 Z " fill="#243938" transform="translate(578,549)"/>
<path d="M0 0 C0.66 0.33 1.32 0.66 2 1 C-6 9 -6 9 -7.75 10.53125 C-9.88297604 13.03749685 -9.17731105 15.86750476 -9 19 C-9.99 19.33 -10.98 19.66 -12 20 C-12.61891117 12.10888252 -12.61891117 12.10888252 -10.5 8.3125 C-7.19590063 5.25620808 -3.67371514 2.59478424 0 0 Z " fill="#214944" transform="translate(193,508)"/>
<path d="M0 0 C0.66 0 1.32 0 2 0 C2 0.66 2 1.32 2 2 C2.58950439 2.27851807 3.17900879 2.55703613 3.78637695 2.84399414 C7.22863009 4.64161944 10.14093909 7.04577818 13.1875 9.4375 C13.82880859 9.92798828 14.47011719 10.41847656 15.13085938 10.92382812 C15.74123047 11.40142578 16.35160156 11.87902344 16.98046875 12.37109375 C17.81421021 13.0196936 17.81421021 13.0196936 18.66479492 13.68139648 C20 15 20 15 21 18 C20.34 18 19.68 18 19 18 C19 18.66 19 19.32 19 20 C18.34 19.67 17.68 19.34 17 19 C17.33 18.01 17.66 17.02 18 16 C17.47792969 15.78214844 16.95585937 15.56429687 16.41796875 15.33984375 C13.04128792 13.4687589 10.24741849 11.05539311 7.3125 8.5625 C6.71888672 8.07201172 6.12527344 7.58152344 5.51367188 7.07617188 C1.12178406 3.36535218 1.12178406 3.36535218 0 0 Z " fill="#1B433E" transform="translate(337,505)"/>
<path d="M0 0 C4.14897797 1.51882229 5.67491259 4.09888617 8 7.75 C8.66 8.77609375 9.32 9.8021875 10 10.859375 C10.66 11.89578125 11.32 12.9321875 12 14 C12.763125 15.05703125 13.52625 16.1140625 14.3125 17.203125 C14.869375 18.12609375 15.42625 19.0490625 16 20 C15.67 20.99 15.34 21.98 15 23 C13.01082567 20.25711333 11.03547758 17.5045544 9.0625 14.75 C8.49853516 13.97269531 7.93457031 13.19539062 7.35351562 12.39453125 C6.81533203 11.64042969 6.27714844 10.88632812 5.72265625 10.109375 C5.22515869 9.41811523 4.72766113 8.72685547 4.21508789 8.01464844 C2.99428046 5.99051685 2.43707691 4.30994013 2 2 C1.34 2 0.68 2 0 2 C0 1.34 0 0.68 0 0 Z " fill="#1E3433" transform="translate(671,531)"/>
<path d="M0 0 C0.60070312 0.20496094 1.20140625 0.40992188 1.8203125 0.62109375 C1.31242188 0.96140625 0.80453125 1.30171875 0.28125 1.65234375 C-6.73249635 6.59086178 -12.0476723 12.09303293 -14.1796875 20.62109375 C-14.5096875 20.62109375 -14.8396875 20.62109375 -15.1796875 20.62109375 C-14.89719769 12.71137899 -11.99194657 8.57385377 -6.58984375 2.97265625 C-2.82877263 -0.49174005 -2.82877263 -0.49174005 0 0 Z " fill="#1F3433" transform="translate(905.1796875,502.37890625)"/>
<path d="M0 0 C2.98586586 1.02960892 3.93803117 1.89911355 5.6171875 4.6328125 C7.17470613 8.42541437 7.36897509 11.16641659 7.3125 15.25 C7.30863281 16.47203125 7.30476562 17.6940625 7.30078125 18.953125 C7 22 7 22 5 24 C4.96132813 22.37191406 4.96132813 22.37191406 4.921875 20.7109375 C4.86556262 19.26558651 4.808216 17.82027556 4.75 16.375 C4.73582031 15.66214844 4.72164062 14.94929687 4.70703125 14.21484375 C4.46987402 9.04481623 3.17564747 6.22996243 0 2 C0 1.34 0 0.68 0 0 Z " fill="#213636" transform="translate(862,515)"/>
<path d="M0 0 C0.66 0 1.32 0 2 0 C2.33 1.65 2.66 3.3 3 5 C7.95 5.33 12.9 5.66 18 6 C18 6.66 18 7.32 18 8 C12.2755861 8.93672227 6.69768835 9.43377278 1 8 C-0.35439668 5.29120665 -0.06501451 2.99066732 0 0 Z " fill="#1C4742" transform="translate(374,412)"/>
<path d="M0 0 C-0.66 0 -1.32 0 -2 0 C-2 0.66 -2 1.32 -2 2 C-3.051875 2.37125 -4.10375 2.7425 -5.1875 3.125 C-9.41084119 4.91672051 -11.27066417 7.36088555 -14 11 C-14.98290968 12.01680311 -15.97334787 13.02738219 -17 14 C-16.67844174 8.69428871 -13.71753935 5.50190482 -10 2 C-6.39173844 -0.3092874 -4.10997592 -1.73883597 0 0 Z " fill="#1E4641" transform="translate(146,430)"/>
<path d="M0 0 C3.7037332 0.2116419 4.92346478 0.92528705 7.625 3.5625 C11.21975156 8.26856277 13 13.09892566 13 19 C12.34 19 11.68 19 11 19 C10.82984375 18.33613281 10.6596875 17.67226563 10.484375 16.98828125 C8.44603767 9.56136067 5.53816357 5.34037201 0 0 Z " fill="#253C3A" transform="translate(774,481)"/>
<path d="M0 0 C0.33 0 0.66 0 1 0 C1.0578304 4.45827926 1.09353855 8.9164628 1.125 13.375 C1.14175781 14.64601563 1.15851563 15.91703125 1.17578125 17.2265625 C1.18222656 18.43828125 1.18867188 19.65 1.1953125 20.8984375 C1.20578613 22.01911621 1.21625977 23.13979492 1.22705078 24.29443359 C1 27 1 27 -1 29 C-1.19504458 26.89651926 -1.38078496 24.79217415 -1.5625 22.6875 C-1.66691406 21.51574219 -1.77132812 20.34398437 -1.87890625 19.13671875 C-2 16 -2 16 -1 13 C-0.77548542 10.77425665 -0.59217122 8.54418481 -0.4375 6.3125 C-0.35371094 5.13300781 -0.26992187 3.95351563 -0.18359375 2.73828125 C-0.12300781 1.83464844 -0.06242187 0.93101562 0 0 Z " fill="#153D38" transform="translate(128,494)"/>
<path d="M0 0 C-2.6226232 1.33819498 -5.24786599 2.6707151 -7.875 4 C-8.99455078 4.57234375 -8.99455078 4.57234375 -10.13671875 5.15625 C-10.85214844 5.5171875 -11.56757813 5.878125 -12.3046875 6.25 C-12.96452637 6.58515625 -13.62436523 6.9203125 -14.30419922 7.265625 C-16 8 -16 8 -18 8 C-18 8.66 -18 9.32 -18 10 C-17.01 10.33 -16.02 10.66 -15 11 C-18 12 -18 12 -20.1875 11.0625 C-20.785625 10.711875 -21.38375 10.36125 -22 10 C-22 9.34 -22 8.68 -22 8 C-18.90352475 6.46312518 -15.79674718 4.94834718 -12.6875 3.4375 C-11.80642578 2.99986328 -10.92535156 2.56222656 -10.01757812 2.11132812 C-9.17001953 1.70205078 -8.32246094 1.29277344 -7.44921875 0.87109375 C-6.66893311 0.48880615 -5.88864746 0.10651855 -5.0847168 -0.28735352 C-3 -1 -3 -1 0 0 Z " fill="#61B096" transform="translate(200,358)"/>
<path d="M0 0 C3.0099549 1.09452906 5.55759439 2.33666076 8.3125 4 C12.07896278 6.2233745 15.7344191 7.10198297 20 8 C20 8.66 20 9.32 20 10 C12.71770755 9.72519651 6.95803857 7.20936996 1 3 C0.67 2.01 0.34 1.02 0 0 Z " fill="#1D433F" transform="translate(125,643)"/>
<path d="M0 0 C0.99 0.33 1.98 0.66 3 1 C2.01 1.33 1.02 1.66 0 2 C0 2.66 0 3.32 0 4 C-2.046875 5.875 -2.046875 5.875 -4.75 8 C-5.63171875 8.70125 -6.5134375 9.4025 -7.421875 10.125 C-9.57798064 11.69307683 -11.57748621 12.91326484 -14 14 C-12.43271854 9.84329701 -9.39212989 7.43909664 -6.0625 4.6875 C-5.52431641 4.22021484 -4.98613281 3.75292969 -4.43164062 3.27148438 C-2.84765625 1.94921875 -2.84765625 1.94921875 0 0 Z " fill="#1B433E" transform="translate(224,482)"/>
<path d="M0 0 C4.28550189 0.50109708 6.220091 1.71881828 9.1875 4.8125 C9.86167969 5.49957031 10.53585937 6.18664062 11.23046875 6.89453125 C12.93388902 8.92133815 14.12271801 10.5053825 15 13 C14.625 15.25 14.625 15.25 14 17 C13.6596875 16.34773437 13.319375 15.69546875 12.96875 15.0234375 C9.84485333 9.39045361 6.93061589 5.62267305 1.5390625 2.05859375 C1.03117188 1.70925781 0.52328125 1.35992187 0 1 C0 0.67 0 0.34 0 0 Z " fill="#1A2F2E" transform="translate(865,503)"/>
<path d="M0 0 C-0.59167969 0.36351562 -1.18335938 0.72703125 -1.79296875 1.1015625 C-6.78214423 4.27575245 -10.48586523 7.23891419 -14 12 C-14.33 11.01 -14.66 10.02 -15 9 C-11.67981211 3.50795989 -6.68046411 -2.02950809 0 0 Z " fill="#213737" transform="translate(843,503)"/>
<path d="M0 0 C0.99 0.66 1.98 1.32 3 2 C2.67 3.32 2.34 4.64 2 6 C1.62875 5.505 1.2575 5.01 0.875 4.5 C-0.99327793 2.75691339 -0.99327793 2.75691339 -3.9375 2.5 C-7.21099949 2.71765328 -7.21099949 2.71765328 -9.375 5.5 C-9.91125 6.325 -10.4475 7.15 -11 8 C-11.21620175 5.3335118 -11.30894168 3.55995679 -10 1.1875 C-6.86940917 -0.6712883 -3.55225172 -0.55145843 0 0 Z " fill="#1A413B" transform="translate(297,466)"/>
<path d="M0 0 C3.37368681 3.07513046 5.50901962 6.28518856 7.75 10.25 C8.67039062 11.86648438 8.67039062 11.86648438 9.609375 13.515625 C10.06828125 14.33546875 10.5271875 15.1553125 11 16 C10.01 16 9.02 16 8 16 C6.44437846 13.91493174 5.12330419 11.91800043 3.8125 9.6875 C3.44447266 9.09259766 3.07644531 8.49769531 2.69726562 7.88476562 C0.9894871 5.04902949 0 3.36630285 0 0 Z " fill="#223837" transform="translate(664,540)"/>
<path d="M0 0 C0.66 0 1.32 0 2 0 C4.45193779 3.67790669 4.71511798 6.72592275 4 11 C2 14 2 14 0 16 C-0.99 15.67 -1.98 15.34 -3 15 C-2.525625 14.649375 -2.05125 14.29875 -1.5625 13.9375 C0.73056448 11.09410004 0.75214519 8.59389474 1 5 C0.64025105 2.18762459 0.64025105 2.18762459 0 0 Z " fill="#223939" transform="translate(769,493)"/>
<path d="M0 0 C0.99 0.495 0.99 0.495 2 1 C3.2169457 6.31030853 3.31354232 11.67729809 2 17 C1.34 17.33 0.68 17.66 0 18 C0 12.06 0 6.12 0 0 Z " fill="#203535" transform="translate(880,521)"/>
<path d="M0 0 C1.64767247 0.28109113 3.29313145 0.57518526 4.9375 0.875 C5.85402344 1.03742188 6.77054687 1.19984375 7.71484375 1.3671875 C8.46894531 1.57601563 9.22304688 1.78484375 10 2 C10.33 2.66 10.66 3.32 11 4 C5.72 4 0.44 4 -5 4 C-4.67 3.01 -4.34 2.02 -4 1 C-2.02 1.495 -2.02 1.495 0 2 C0 1.34 0 0.68 0 0 Z " fill="#1F3534" transform="translate(487,476)"/>
<path d="M0 0 C0 0.66 0 1.32 0 2 C0.66 2.33 1.32 2.66 2 3 C-2.95 3.33 -7.9 3.66 -13 4 C-13 3.01 -13 2.02 -13 1 C-8.59085217 -0.10228696 -4.51617599 -0.07654536 0 0 Z " fill="#213434" transform="translate(560,477)"/>
<path d="M0 0 C1.53266582 3.06533164 1.10276471 6.26754272 1.0625 9.625 C1.05798828 10.33140625 1.05347656 11.0378125 1.04882812 11.765625 C1.03703875 13.51045275 1.01910324 15.255237 1 17 C-1.75891757 14.67865269 -2.43688742 13.13318769 -2.75 9.5625 C-2.86601563 8.41974609 -2.86601563 8.41974609 -2.984375 7.25390625 C-3.00037452 4.94597561 -2.78225359 3.17027674 -2 1 C-1.34 0.67 -0.68 0.34 0 0 Z " fill="#1B423D" transform="translate(110,605)"/>
<path d="M0 0 C0.58394531 0.21785156 1.16789063 0.43570313 1.76953125 0.66015625 C1.15464844 1.1190625 0.53976562 1.57796875 -0.09375 2.05078125 C-0.90199219 2.664375 -1.71023438 3.27796875 -2.54296875 3.91015625 C-3.34347656 4.5134375 -4.14398437 5.11671875 -4.96875 5.73828125 C-7.11596487 7.56285761 -8.64648174 9.34312671 -10.23046875 11.66015625 C-10.1552129 8.4994107 -9.80821079 6.34888558 -7.74609375 3.890625 C-2.98364479 -0.45460087 -2.98364479 -0.45460087 0 0 Z " fill="#1E3333" transform="translate(588.23046875,527.33984375)"/>
<path d="M0 0 C0.66 0 1.32 0 2 0 C3.44963959 1.90374355 4.81184323 3.87467159 6.125 5.875 C6.84945312 6.96554687 7.57390625 8.05609375 8.3203125 9.1796875 C10 12 10 12 10 14 C6.08402356 12.69467452 5.46169654 11.02734726 3.3125 7.5625 C2.68988281 6.57378906 2.06726563 5.58507812 1.42578125 4.56640625 C0 2 0 2 0 0 Z " fill="#1F3534" transform="translate(638,504)"/>
<path d="M0 0 C0.66 0 1.32 0 2 0 C3.65625 2.08203125 3.65625 2.08203125 5.5 4.8125 C6.41265625 6.15248047 6.41265625 6.15248047 7.34375 7.51953125 C8.56322622 9.34586946 9.7818509 11.17277634 11 13 C8.38070828 12.61932203 7.20808367 12.21295682 5.33203125 10.29296875 C4.83058594 9.59816406 4.32914062 8.90335938 3.8125 8.1875 C3.04873047 7.15689453 3.04873047 7.15689453 2.26953125 6.10546875 C1.02267792 4.03761046 0.44004843 2.35929578 0 0 Z " fill="#1A413C" transform="translate(113,629)"/>
<path d="M0 0 C5.68502535 1.64566523 10.76681636 4.29032784 16 7 C13.25840627 8.06798426 12.08944404 8.02884475 9.23828125 7.109375 C8.27277344 6.66078125 7.30726563 6.2121875 6.3125 5.75 C5.33925781 5.31171875 4.36601562 4.8734375 3.36328125 4.421875 C1 3 1 3 0 0 Z " fill="#1F4A45" transform="translate(170,379)"/>
<path d="M0 0 C0.33 0 0.66 0 1 0 C1 1.65 1 3.3 1 5 C1.66 5.33 2.32 5.66 3 6 C0.35541621 7.32229189 -1.67761301 7.09677194 -4.625 7.0625 C-5.62789063 7.05347656 -6.63078125 7.04445313 -7.6640625 7.03515625 C-8.43492187 7.02355469 -9.20578125 7.01195312 -10 7 C-10.33 6.34 -10.66 5.68 -11 5 C-7.37 5 -3.74 5 0 5 C0 3.35 0 1.7 0 0 Z " fill="#1A3332" transform="translate(496,552)"/>
<path d="M0 0 C2.4377963 -0.05397335 4.87439685 -0.09365616 7.3125 -0.125 C8.00279297 -0.14175781 8.69308594 -0.15851562 9.40429688 -0.17578125 C13.17135396 -0.21217794 14.78431704 -0.14378864 18 2 C17.67 3.32 17.34 4.64 17 6 C16.34 5.01 15.68 4.02 15 3 C11.83754459 1.9458482 9.13051782 1.68724328 5.8125 1.4375 C4.72582031 1.35371094 3.63914062 1.26992188 2.51953125 1.18359375 C1.68808594 1.12300781 0.85664063 1.06242188 0 1 C0 0.67 0 0.34 0 0 Z " fill="#113530" transform="translate(427,602)"/>
<path d="M0 0 C6.11090483 -0.09945415 11.97403427 -0.0712828 18 1 C18 1.33 18 1.66 18 2 C11.45688671 2.87557031 6.23352019 3.3548854 0 1 C0 0.67 0 0.34 0 0 Z " fill="#192F2F" transform="translate(732,557)"/>
<path d="M0 0 C0 0.33 0 0.66 0 1 C-0.56847656 1.01417969 -1.13695312 1.02835938 -1.72265625 1.04296875 C-7.97774682 1.42934329 -11.18763354 3.00675974 -16 7 C-16.66 6.67 -17.32 6.34 -18 6 C-12.56892697 -0.2281247 -8.04319656 -0.7854116 0 0 Z " fill="#172928" transform="translate(923,511)"/>
<path d="M0 0 C1.91595968 -0.08133791 3.83291932 -0.13934367 5.75 -0.1875 C7.35101562 -0.23970703 7.35101562 -0.23970703 8.984375 -0.29296875 C12.30027855 0.02917214 13.59016673 0.77148914 16 3 C15.67 3.99 15.34 4.98 15 6 C14.195625 5.360625 13.39125 4.72125 12.5625 4.0625 C8.64148693 1.40147674 4.63357199 1.20593653 0 1 C0 0.67 0 0.34 0 0 Z " fill="#334A49" transform="translate(914,512)"/>
<path d="M0 0 C0.680625 0.33 1.36125 0.66 2.0625 1 C5.50840238 2.17307315 8.38397422 2.14180493 12 2 C12 2.66 12 3.32 12 4 C4.65882353 5.34588235 4.65882353 5.34588235 1.5 3.6875 C0 2 0 2 0 0 Z " fill="#243938" transform="translate(701,489)"/>
<path d="M0 0 C0.99 0.33 1.98 0.66 3 1 C4 4 4 4 2.75 6.5625 C1 9 1 9 -2 11 C-2.99 10.67 -3.98 10.34 -5 10 C-4.175 9.649375 -3.35 9.29875 -2.5 8.9375 C-1.675 8.298125 -0.85 7.65875 0 7 C0.41725678 3.37400578 0.41725678 3.37400578 0 0 Z " fill="#1E443E" transform="translate(401,363)"/>
<path d="M0 0 C0.515625 0.309375 1.03125 0.61875 1.5625 0.9375 C4.66665423 2.29059287 7.65115007 2.61359424 11 3 C11 3.66 11 4.32 11 5 C8.875 5.75 8.875 5.75 6 6 C2.6875 4.1875 2.6875 4.1875 0 2 C0 1.34 0 0.68 0 0 Z " fill="#1E4640" transform="translate(226,562)"/>
<path d="M0 0 C0 0.66 0 1.32 0 2 C-3.67410785 3.17571451 -7.16929183 3.07366746 -11 3 C-11.33 2.34 -11.66 1.68 -12 1 C-7.9472484 0.01751476 -4.16138263 -0.08159574 0 0 Z " fill="#1F3434" transform="translate(860,547)"/>
<path d="M0 0 C0.33 0.99 0.66 1.98 1 3 C-0.36328125 5.48046875 -0.36328125 5.48046875 -2.3125 8.1875 C-2.94800781 9.08855469 -3.58351563 9.98960937 -4.23828125 10.91796875 C-5.11033203 11.94857422 -5.11033203 11.94857422 -6 13 C-6.66 13 -7.32 13 -8 13 C-6.53181332 9.89257577 -4.79975 7.09528261 -2.875 4.25 C-2.33617187 3.45078125 -1.79734375 2.6515625 -1.2421875 1.828125 C-0.62730469 0.92320312 -0.62730469 0.92320312 0 0 Z " fill="#1C3130" transform="translate(679,515)"/>
<path d="M0 0 C0.99 0.33 1.98 0.66 3 1 C2.01 1.33 1.02 1.66 0 2 C0 2.66 0 3.32 0 4 C-1.95927063 5.7143618 -3.95880212 7.38405168 -6 9 C-6.66 8.67 -7.32 8.34 -8 8 C-3.375 2.25 -3.375 2.25 0 0 Z " fill="#193F3A" transform="translate(206,497)"/>
<path d="M0 0 C4.38889325 0.66498383 7.9811485 2.18757677 12 4 C12 4.66 12 5.32 12 6 C7.24518354 5.42365861 4.02951788 3.44931479 0 1 C0 0.67 0 0.34 0 0 Z " fill="#1E4843" transform="translate(295,313)"/>
<path d="M0 0 C0.99 0.33 1.98 0.66 3 1 C3 3.64 3 6.28 3 9 C2.01 9 1.02 9 0 9 C-1.125 2.25 -1.125 2.25 0 0 Z " fill="#214A45" transform="translate(316,554)"/>
<path d="M0 0 C1.60540659 0.78914921 3.20928016 1.58141765 4.8125 2.375 C5.70582031 2.81585937 6.59914063 3.25671875 7.51953125 3.7109375 C10 5 10 5 13 7 C7.72611976 7.50227431 5.08984305 6.32894202 1 3 C0.67 2.01 0.34 1.02 0 0 Z " fill="#1D2F30" transform="translate(833,552)"/>
<path d="M0 0 C7 9.1 7 9.1 7 12 C6.34 12 5.68 12 5 12 C2.16741821 9.02149733 0.12535682 6.1783541 -0.3125 2.0625 C-0.209375 1.381875 -0.10625 0.70125 0 0 Z " fill="#203433" transform="translate(825,540)"/>
<path d="M0 0 C0.66 0 1.32 0 2 0 C1.34 2.64 0.68 5.28 0 8 C-0.66 8 -1.32 8 -2 8 C-2.66 9.32 -3.32 10.64 -4 12 C-3.45660208 7.43545749 -2.20536179 4.0271824 0 0 Z " fill="#1D3434" transform="translate(529,514)"/>
<path d="M0 0 C3.79133356 0.54161908 5.66109564 1.99283725 8 5 C8.25 7.75 8.25 7.75 8 10 C7.34 10 6.68 10 6 10 C5.7525 9.0925 5.505 8.185 5.25 7.25 C3.96018658 3.89648511 2.68028958 2.32291764 0 0 Z " fill="#173D39" transform="translate(368,513)"/>
<path d="M0 0 C2.375 0.3125 2.375 0.3125 5 1 C7.29013653 4.4352048 7.17842973 5.985331 7 10 C6.34 10 5.68 10 5 10 C4.731875 8.906875 4.46375 7.81375 4.1875 6.6875 C3.12336261 3.38307337 2.65345336 2.05039578 0 0 Z " fill="#213535" transform="translate(710,478)"/>
<path d="M0 0 C4.37859255 0.50522222 6.81651224 3.17827222 10 6 C9.67 6.66 9.34 7.32 9 8 C7.49712782 6.85793642 5.99776716 5.71125043 4.5 4.5625 C3.6646875 3.92441406 2.829375 3.28632812 1.96875 2.62890625 C1.3190625 2.09136719 0.669375 1.55382812 0 1 C0 0.67 0 0.34 0 0 Z " fill="#183F3B" transform="translate(222,541)"/>
<path d="M0 0 C0.33 0 0.66 0 1 0 C0.49202991 4.3177458 -0.19682779 8.03302114 -2 12 C-2.33 12 -2.66 12 -3 12 C-3.34833144 7.12335991 -2.41685712 4.22949995 0 0 Z " fill="#1B433E" transform="translate(269,524)"/>
<path d="M0 0 C6 7.71428571 6 7.71428571 6 12 C5.34 12 4.68 12 4 12 C3.32332002 10.75539217 2.65905281 9.50403104 2 8.25 C1.62875 7.55390625 1.2575 6.8578125 0.875 6.140625 C0 4 0 4 0 0 Z " fill="#1B3030" transform="translate(500,507)"/>
<path d="M0 0 C4.37859255 0.50522222 6.81651224 3.17827222 10 6 C9.67 6.66 9.34 7.32 9 8 C7.49712782 6.85793642 5.99776716 5.71125043 4.5 4.5625 C3.6646875 3.92441406 2.829375 3.28632813 1.96875 2.62890625 C1.3190625 2.09136719 0.669375 1.55382812 0 1 C0 0.67 0 0.34 0 0 Z " fill="#19413C" transform="translate(344,493)"/>
<path d="M0 0 C0.99 0.33 1.98 0.66 3 1 C2.01 3.64 1.02 6.28 0 9 C-0.66 9 -1.32 9 -2 9 C-2.6875 6.75 -2.6875 6.75 -3 4 C-1.5625 1.6875 -1.5625 1.6875 0 0 Z " fill="#233839" transform="translate(701,479)"/>
<path d="M0 0 C2.5 2.0625 2.5 2.0625 5 5 C5.3125 8.8125 5.3125 8.8125 5 12 C1.76414967 8.76414967 1.01054426 4.37902513 0 0 Z " fill="#1C3130" transform="translate(621,507)"/>
<path d="M0 0 C0.99 0.33 1.98 0.66 3 1 C2.2884375 1.6496875 2.2884375 1.6496875 1.5625 2.3125 C-0.23686957 4.02309613 -0.23686957 4.02309613 -1 7 C-2.32 6.67 -3.64 6.34 -5 6 C-3.35 4.02 -1.7 2.04 0 0 Z " fill="#243B3B" transform="translate(582,506)"/>
<path d="M0 0 C0.66 0.33 1.32 0.66 2 1 C-0.64 3.64 -3.28 6.28 -6 9 C-6.66 8.67 -7.32 8.34 -8 8 C-3.375 2.25 -3.375 2.25 0 0 Z " fill="#193E39" transform="translate(193,508)"/>
<path d="M0 0 C4.12751449 0.60698743 7.3321148 2.03810791 11 4 C11 4.66 11 5.32 11 6 C6.48986609 5.46939601 3.61621781 3.69113883 0 1 C0 0.67 0 0.34 0 0 Z " fill="#233636" transform="translate(897,552)"/>
<path d="M0 0 C0.99 0.33 1.98 0.66 3 1 C2.01 1.33 1.02 1.66 0 2 C0 2.66 0 3.32 0 4 C-3.46153846 7 -3.46153846 7 -6 7 C-4.61990379 3.66476748 -3.15049348 1.81392049 0 0 Z " fill="#1B433E" transform="translate(327,545)"/>
<path d="M0 0 C0.66 0.33 1.32 0.66 2 1 C0.40540668 3.39188999 -0.83023454 5.17739702 -3 7 C-3.99 7 -4.98 7 -6 7 C-6 6.34 -6 5.68 -6 5 C-5.34 5 -4.68 5 -4 5 C-3.71125 4.360625 -3.4225 3.72125 -3.125 3.0625 C-2 1 -2 1 0 0 Z " fill="#183F3B" transform="translate(343,532)"/>
<path d="M0 0 C0.53625 0.226875 1.0725 0.45375 1.625 0.6875 C-1.32683101 3.63933101 -4.33011947 3.77413988 -8.375 4.6875 C-8.375 4.0275 -8.375 3.3675 -8.375 2.6875 C-2.95961538 -0.38942308 -2.95961538 -0.38942308 0 0 Z " fill="#1C4540" transform="translate(177.375,350.3125)"/>
<path d="M0 0 C0.33 0.66 0.66 1.32 1 2 C0.0625 4.625 0.0625 4.625 -1 7 C-0.34 7.66 0.32 8.32 1 9 C-0.65 8.67 -2.3 8.34 -4 8 C-3.50168276 4.31245243 -2.89932357 2.39509338 0 0 Z " fill="#1F3130" transform="translate(895,569)"/>
<path d="M0 0 C2.0625 0.4375 2.0625 0.4375 4 1 C3.01 1.66 2.02 2.32 1 3 C0.26656572 6.06556598 0.26656572 6.06556598 0 9 C-0.66 8.67 -1.32 8.34 -2 8 C-1.125 1.125 -1.125 1.125 0 0 Z " fill="#1D413C" transform="translate(152,361)"/>
<path d="M0 0 C0.33 0 0.66 0 1 0 C1.33 3.3 1.66 6.6 2 10 C-1 7 -1 7 -1.25 3.875 C-1 1 -1 1 0 0 Z " fill="#203838" transform="translate(590,538)"/>
<path d="M0 0 C3 1 3 1 4.75 3.3125 C6.14972335 6.32190521 5.95287489 6.98041673 5 10 C4.16121545 8.71186658 3.32913217 7.41936744 2.5 6.125 C2.0359375 5.40570312 1.571875 4.68640625 1.09375 3.9453125 C0 2 0 2 0 0 Z " fill="#1E3332" transform="translate(656,510)"/>
<path d="M0 0 C5.75 3.625 5.75 3.625 8 7 C4.21388773 6.45912682 2.44599233 4.88277668 0 2 C0 1.34 0 0.68 0 0 Z " fill="#193F3A" transform="translate(324,494)"/>
<path d="M0 0 C1.98 0.99 1.98 0.99 4 2 C4 3.98 4 5.96 4 8 C3.34 8 2.68 8 2 8 C1.34 5.36 0.68 2.72 0 0 Z " fill="#1D4943" transform="translate(238,480)"/>
<path d="M0 0 C3.82097239 0.53069061 6.06171403 1.49701566 9 4 C2.25 3.125 2.25 3.125 0 2 C0 1.34 0 0.68 0 0 Z " fill="#1B4540" transform="translate(191,389)"/>
<path d="M0 0 C5.75 0.875 5.75 0.875 8 2 C7.67 2.99 7.34 3.98 7 5 C4.69 4.01 2.38 3.02 0 2 C0 1.34 0 0.68 0 0 Z " fill="#1F4A44" transform="translate(321,325)"/>
<path d="M0 0 C0 3 0 3 -2.5 5.6875 C-3.325 6.450625 -4.15 7.21375 -5 8 C-4.45773019 4.20411134 -2.79872437 2.52788007 0 0 Z " fill="#1B2E2E" transform="translate(649,538)"/>
<path d="M0 0 C-1.13474948 3.40424844 -1.96811304 4.21653709 -5 6 C-5.99 5.67 -6.98 5.34 -8 5 C-2.25 0 -2.25 0 0 0 Z " fill="#1A413C" transform="translate(210,514)"/>
<path d="M0 0 C0.66 0.33 1.32 0.66 2 1 C0.35 2.65 -1.3 4.3 -3 6 C-3.99 5.67 -4.98 5.34 -6 5 C-4.02 3.35 -2.04 1.7 0 0 Z " fill="#1A433E" transform="translate(237,490)"/>
<path d="M0 0 C2.875 0.3125 2.875 0.3125 6 1 C6.66 1.99 7.32 2.98 8 4 C5.36 3.67 2.72 3.34 0 3 C0 2.01 0 1.02 0 0 Z " fill="#2B5B53" transform="translate(232,476)"/>
<path d="M0 0 C0.33 1.32 0.66 2.64 1 4 C0.01 3.34 -0.98 2.68 -2 2 C-1.34 1.34 -0.68 0.68 0 0 Z " fill="#43625F" transform="translate(930,555)"/>
<path d="M0 0 C0.99 0.495 0.99 0.495 2 1 C2 1.66 2 2.32 2 3 C1.34 3 0.68 3 0 3 C0 2.01 0 1.02 0 0 Z " fill="#3D716A" transform="translate(112,632)"/>
<path d="M0 0 C4 1 4 1 4 1 Z " fill="#40615D" transform="translate(918,544)"/>
<path d="M0 0 C3 1 3 1 3 1 Z " fill="#3C7068" transform="translate(137,653)"/>
<path d="M0 0 C3 1 3 1 3 1 Z " fill="#41615F" transform="translate(761,525)"/>
<path d="M0 0 C3 1 3 1 3 1 Z " fill="#476863" transform="translate(904,499)"/>
<path d="M0 0 C3 1 3 1 3 1 Z " fill="#466462" transform="translate(649,498)"/>
<path d="" fill="#3C756C" transform="translate(0,0)"/>
<path d="" fill="#3E726B" transform="translate(0,0)"/>
<path d="" fill="#3B726C" transform="translate(0,0)"/>
<path d="" fill="#456462" transform="translate(0,0)"/>
<path d="M0 0 C2 1 2 1 2 1 Z " fill="#3B746C" transform="translate(323,545)"/>
<path d="M0 0 C2 1 2 1 2 1 Z " fill="#3F5E5C" transform="translate(749,544)"/>
<path d="M0 0 C2 1 2 1 2 1 Z " fill="#426260" transform="translate(745,544)"/>
<path d="" fill="#416360" transform="translate(0,0)"/>
<path d="M0 0 C2 1 2 1 2 1 Z " fill="#3B746B" transform="translate(212,529)"/>
<path d="" fill="#436561" transform="translate(0,0)"/>
<path d="M0 0 C2 1 2 1 2 1 Z " fill="#486663" transform="translate(632,499)"/>
<path d="M0 0 C2 1 2 1 2 1 Z " fill="#486965" transform="translate(859,498)"/>
<path d="M0 0 C2 1 2 1 2 1 Z " fill="#496764" transform="translate(550,476)"/>
<path d="M0 0 C2 1 2 1 2 1 Z " fill="#3C756D" transform="translate(379,446)"/>
<path d="M0 0 C2 1 2 1 2 1 Z " fill="#3E7770" transform="translate(187,446)"/>
<path d="" fill="#3D736C" transform="translate(0,0)"/>
<path d="M0 0 C2 1 2 1 2 1 Z " fill="#3C746C" transform="translate(200,336)"/>
<path d="" fill="#505851" transform="translate(0,0)"/>
<path d="" fill="#3D726B" transform="translate(0,0)"/>
<path d="" fill="#40736A" transform="translate(0,0)"/>
<path d="" fill="#41756D" transform="translate(0,0)"/>
<path d="" fill="#3E726A" transform="translate(0,0)"/>
<path d="" fill="#3C706B" transform="translate(0,0)"/>
<path d="" fill="#3D716A" transform="translate(0,0)"/>
<path d="" fill="#3D7068" transform="translate(0,0)"/>
<path d="" fill="#3F736C" transform="translate(0,0)"/>
<path d="" fill="#3D766D" transform="translate(0,0)"/>
<path d="" fill="#42766F" transform="translate(0,0)"/>
<path d="" fill="#486660" transform="translate(0,0)"/>
<path d="" fill="#45655F" transform="translate(0,0)"/>
<path d="" fill="#3A736C" transform="translate(0,0)"/>
<path d="" fill="#40625F" transform="translate(0,0)"/>
<path d="" fill="#3F615E" transform="translate(0,0)"/>
<path d="" fill="#44625F" transform="translate(0,0)"/>
<path d="" fill="#436460" transform="translate(0,0)"/>
<path d="" fill="#456563" transform="translate(0,0)"/>
<path d="" fill="#486663" transform="translate(0,0)"/>
<path d="" fill="#42625F" transform="translate(0,0)"/>
<path d="" fill="#3C736D" transform="translate(0,0)"/>
<path d="" fill="#446460" transform="translate(0,0)"/>
<path d="" fill="#41605D" transform="translate(0,0)"/>
<path d="" fill="#446160" transform="translate(0,0)"/>
<path d="" fill="#3F5E5C" transform="translate(0,0)"/>
<path d="" fill="#426460" transform="translate(0,0)"/>
<path d="" fill="#466663" transform="translate(0,0)"/>
<path d="" fill="#3E736C" transform="translate(0,0)"/>
<path d="" fill="#3C756E" transform="translate(0,0)"/>
<path d="" fill="#456560" transform="translate(0,0)"/>
<path d="" fill="#3E756D" transform="translate(0,0)"/>
<path d="" fill="#466361" transform="translate(0,0)"/>
<path d="" fill="#456563" transform="translate(0,0)"/>
<path d="" fill="#44615F" transform="translate(0,0)"/>
<path d="" fill="#3D756E" transform="translate(0,0)"/>
<path d="" fill="#45615F" transform="translate(0,0)"/>
<path d="" fill="#3F7972" transform="translate(0,0)"/>
<path d="" fill="#416261" transform="translate(0,0)"/>
<path d="" fill="#446160" transform="translate(0,0)"/>
<path d="" fill="#41615D" transform="translate(0,0)"/>
<path d="" fill="#446462" transform="translate(0,0)"/>
<path d="" fill="#41615D" transform="translate(0,0)"/>
<path d="" fill="#45615F" transform="translate(0,0)"/>
<path d="" fill="#446462" transform="translate(0,0)"/>
<path d="" fill="#3B766F" transform="translate(0,0)"/>
<path d="" fill="#446160" transform="translate(0,0)"/>
<path d="" fill="#42605E" transform="translate(0,0)"/>
<path d="" fill="#3F625E" transform="translate(0,0)"/>
<path d="" fill="#3D746E" transform="translate(0,0)"/>
<path d="" fill="#3E7268" transform="translate(0,0)"/>
<path d="" fill="#446463" transform="translate(0,0)"/>
<path d="" fill="#3E776E" transform="translate(0,0)"/>
<path d="" fill="#3D746C" transform="translate(0,0)"/>
<path d="" fill="#426160" transform="translate(0,0)"/>
<path d="" fill="#406461" transform="translate(0,0)"/>
<path d="" fill="#426360" transform="translate(0,0)"/>
<path d="" fill="#446361" transform="translate(0,0)"/>
<path d="" fill="#426160" transform="translate(0,0)"/>
<path d="" fill="#42605E" transform="translate(0,0)"/>
<path d="" fill="#426160" transform="translate(0,0)"/>
<path d="" fill="#416261" transform="translate(0,0)"/>
<path d="" fill="#446360" transform="translate(0,0)"/>
<path d="" fill="#426662" transform="translate(0,0)"/>
<path d="" fill="#41605E" transform="translate(0,0)"/>
<path d="" fill="#436360" transform="translate(0,0)"/>
<path d="" fill="#416361" transform="translate(0,0)"/>
<path d="" fill="#466564" transform="translate(0,0)"/>
<path d="" fill="#3F5F5D" transform="translate(0,0)"/>
<path d="" fill="#436261" transform="translate(0,0)"/>
<path d="" fill="#3D716A" transform="translate(0,0)"/>
<path d="" fill="#466762" transform="translate(0,0)"/>
<path d="" fill="#42635F" transform="translate(0,0)"/>
<path d="" fill="#3D756B" transform="translate(0,0)"/>
<path d="" fill="#425F5F" transform="translate(0,0)"/>
<path d="" fill="#3F615E" transform="translate(0,0)"/>
<path d="" fill="#446461" transform="translate(0,0)"/>
<path d="" fill="#3E746E" transform="translate(0,0)"/>
<path d="" fill="#446260" transform="translate(0,0)"/>
<path d="" fill="#436260" transform="translate(0,0)"/>
<path d="" fill="#3D776F" transform="translate(0,0)"/>
<path d="" fill="#406060" transform="translate(0,0)"/>
<path d="" fill="#3D5B5D" transform="translate(0,0)"/>
<path d="" fill="#40615F" transform="translate(0,0)"/>
<path d="" fill="#426160" transform="translate(0,0)"/>
<path d="" fill="#3F615C" transform="translate(0,0)"/>
<path d="" fill="#446360" transform="translate(0,0)"/>
<path d="" fill="#42635F" transform="translate(0,0)"/>
<path d="" fill="#436360" transform="translate(0,0)"/>
<path d="" fill="#416460" transform="translate(0,0)"/>
<path d="" fill="#446260" transform="translate(0,0)"/>
<path d="" fill="#3B736C" transform="translate(0,0)"/>
<path d="" fill="#41625F" transform="translate(0,0)"/>
<path d="" fill="#456464" transform="translate(0,0)"/>
<path d="" fill="#436160" transform="translate(0,0)"/>
<path d="" fill="#426261" transform="translate(0,0)"/>
<path d="" fill="#3E756E" transform="translate(0,0)"/>
<path d="" fill="#406160" transform="translate(0,0)"/>
<path d="" fill="#446463" transform="translate(0,0)"/>
<path d="" fill="#41625F" transform="translate(0,0)"/>
<path d="" fill="#416161" transform="translate(0,0)"/>
<path d="" fill="#3D746C" transform="translate(0,0)"/>
<path d="" fill="#3E5D5C" transform="translate(0,0)"/>
<path d="" fill="#44645F" transform="translate(0,0)"/>
<path d="" fill="#436363" transform="translate(0,0)"/>
<path d="" fill="#3F5C5B" transform="translate(0,0)"/>
<path d="" fill="#456561" transform="translate(0,0)"/>
<path d="" fill="#42615D" transform="translate(0,0)"/>
<path d="" fill="#3F6561" transform="translate(0,0)"/>
<path d="" fill="#445F5F" transform="translate(0,0)"/>
<path d="" fill="#43615E" transform="translate(0,0)"/>
<path d="" fill="#42605D" transform="translate(0,0)"/>
<path d="" fill="#3F615F" transform="translate(0,0)"/>
<path d="" fill="#416362" transform="translate(0,0)"/>
<path d="" fill="#42615F" transform="translate(0,0)"/>
<path d="" fill="#3E766F" transform="translate(0,0)"/>
<path d="" fill="#456561" transform="translate(0,0)"/>
<path d="" fill="#436361" transform="translate(0,0)"/>
<path d="" fill="#3B736B" transform="translate(0,0)"/>
<path d="" fill="#436261" transform="translate(0,0)"/>
<path d="" fill="#426461" transform="translate(0,0)"/>
<path d="" fill="#3C766D" transform="translate(0,0)"/>
<path d="" fill="#426462" transform="translate(0,0)"/>
<path d="" fill="#3C7469" transform="translate(0,0)"/>
<path d="" fill="#406060" transform="translate(0,0)"/>
<path d="" fill="#486562" transform="translate(0,0)"/>
<path d="" fill="#46645F" transform="translate(0,0)"/>
<path d="" fill="#486561" transform="translate(0,0)"/>
<path d="" fill="#4A6967" transform="translate(0,0)"/>
<path d="" fill="#466663" transform="translate(0,0)"/>
<path d="" fill="#496663" transform="translate(0,0)"/>
<path d="" fill="#456362" transform="translate(0,0)"/>
<path d="" fill="#476563" transform="translate(0,0)"/>
<path d="" fill="#466764" transform="translate(0,0)"/>
<path d="" fill="#476964" transform="translate(0,0)"/>
<path d="" fill="#446462" transform="translate(0,0)"/>
<path d="" fill="#486662" transform="translate(0,0)"/>
<path d="" fill="#476464" transform="translate(0,0)"/>
<path d="" fill="#466764" transform="translate(0,0)"/>
<path d="" fill="#446663" transform="translate(0,0)"/>
<path d="" fill="#3B746B" transform="translate(0,0)"/>
<path d="" fill="#3C756E" transform="translate(0,0)"/>
<path d="" fill="#466865" transform="translate(0,0)"/>
<path d="" fill="#476561" transform="translate(0,0)"/>
<path d="" fill="#436460" transform="translate(0,0)"/>
<path d="" fill="#486765" transform="translate(0,0)"/>
<path d="" fill="#3C736A" transform="translate(0,0)"/>
<path d="" fill="#3F766F" transform="translate(0,0)"/>
<path d="" fill="#446564" transform="translate(0,0)"/>
<path d="" fill="#436462" transform="translate(0,0)"/>
<path d="" fill="#3D756D" transform="translate(0,0)"/>
<path d="" fill="#3D786D" transform="translate(0,0)"/>
<path d="" fill="#3D7970" transform="translate(0,0)"/>
<path d="" fill="#3F786F" transform="translate(0,0)"/>
<path d="" fill="#3C766D" transform="translate(0,0)"/>
<path d="" fill="#456562" transform="translate(0,0)"/>
<path d="" fill="#3E746D" transform="translate(0,0)"/>
<path d="" fill="#3C746B" transform="translate(0,0)"/>
<path d="" fill="#3C7067" transform="translate(0,0)"/>
<path d="" fill="#427972" transform="translate(0,0)"/>
<path d="" fill="#4A6966" transform="translate(0,0)"/>
<path d="" fill="#466B66" transform="translate(0,0)"/>
<path d="" fill="#4D6A67" transform="translate(0,0)"/>
<path d="" fill="#496A66" transform="translate(0,0)"/>
<path d="" fill="#4A6A67" transform="translate(0,0)"/>
<path d="" fill="#496866" transform="translate(0,0)"/>
<path d="" fill="#3E766D" transform="translate(0,0)"/>
<path d="" fill="#41756C" transform="translate(0,0)"/>
<path d="" fill="#3D746C" transform="translate(0,0)"/>
<path d="" fill="#3F756F" transform="translate(0,0)"/>
<path d="" fill="#3E786F" transform="translate(0,0)"/>
<path d="" fill="#3E776F" transform="translate(0,0)"/>
<path d="" fill="#3D776F" transform="translate(0,0)"/>
<path d="" fill="#3F7A71" transform="translate(0,0)"/>
<path d="" fill="#3D7970" transform="translate(0,0)"/>
<path d="" fill="#3D766E" transform="translate(0,0)"/>
<path d="" fill="#3E746B" transform="translate(0,0)"/>
<path d="" fill="#42776E" transform="translate(0,0)"/>
<path d="" fill="#40756E" transform="translate(0,0)"/>
<path d="" fill="#40776F" transform="translate(0,0)"/>
<path d="" fill="#3C7067" transform="translate(0,0)"/>
<path d="" fill="#3E746C" transform="translate(0,0)"/>
<path d="" fill="#3A756D" transform="translate(0,0)"/>
<path d="" fill="#3D756F" transform="translate(0,0)"/>
<path d="" fill="#40756D" transform="translate(0,0)"/>
<path d="" fill="#43736A" transform="translate(0,0)"/>
<path d="" fill="#3B736B" transform="translate(0,0)"/>
<path d="" fill="#3D746E" transform="translate(0,0)"/>
<path d="" fill="#3D716A" transform="translate(0,0)"/>
<path d="" fill="#3D776F" transform="translate(0,0)"/>
<path d="" fill="#3C776E" transform="translate(0,0)"/>
<path d="" fill="#3C776D" transform="translate(0,0)"/>
<path d="" fill="#3C6F6B" transform="translate(0,0)"/>
<path d="" fill="#3D746C" transform="translate(0,0)"/>
<path d="" fill="#3E776F" transform="translate(0,0)"/>
<path d="" fill="#3F736C" transform="translate(0,0)"/>
<path d="" fill="#42786F" transform="translate(0,0)"/>
<path d="" fill="#3C736D" transform="translate(0,0)"/>
<path d="" fill="#3F766F" transform="translate(0,0)"/>
<path d="" fill="#3E756C" transform="translate(0,0)"/>
</svg>
